<svg id="Calque_1" data-name="Calque 1" xmlns="http://www.w3.org/2000/svg" viewBox="0 0 330.96 76.88"><defs><style>.cls-1{fill:#8b4dff;}.cls-2{fill:#1b0d3f;}.cls-3{fill:#00ed89;}.cls-4{fill:#00ec89;}.cls-5{fill:#01ec8a;}.cls-6{fill:#01eb8a;}.cls-7{fill:#01ea8a;}.cls-8{fill:#01e98b;}.cls-9{fill:#02e98b;}.cls-10{fill:#02e88c;}.cls-11{fill:#02e78c;}.cls-12{fill:#03e68c;}.cls-13{fill:#03e68d;}.cls-14{fill:#03e58d;}.cls-15{fill:#03e48d;}.cls-16{fill:#04e38e;}.cls-17{fill:#04e28f;}.cls-18{fill:#05e18f;}.cls-19{fill:#05e08f;}.cls-20{fill:#05e090;}.cls-21{fill:#05df90;}.cls-22{fill:#06de90;}.cls-23{fill:#06dd91;}.cls-24{fill:#06dc92;}.cls-25{fill:#07db92;}.cls-26{fill:#07da92;}.cls-27{fill:#07da93;}.cls-28{fill:#08d993;}.cls-29{fill:#08d893;}.cls-30{fill:#08d794;}.cls-31{fill:#09d695;}.cls-32{fill:#09d595;}.cls-33{fill:#09d495;}.cls-34{fill:#0ad496;}.cls-35{fill:#0ad396;}.cls-36{fill:#0ad296;}.cls-37{fill:#0ad197;}.cls-38{fill:#0bd197;}.cls-39{fill:#0bd098;}.cls-40{fill:#0bcf98;}.cls-41{fill:#0cce98;}.cls-42{fill:#0cce99;}.cls-43{fill:#0ccd99;}.cls-44{fill:#0ccc99;}.cls-45{fill:#0dcb9a;}.cls-46{fill:#0dca9b;}.cls-47{fill:#0ec99b;}.cls-48{fill:#0ec89b;}.cls-49{fill:#0ec89c;}.cls-50{fill:#0ec79c;}.cls-51{fill:#0fc69c;}.cls-52{fill:#0fc59d;}.cls-53{fill:#0fc49e;}.cls-54{fill:#10c39e;}.cls-55{fill:#10c29e;}.cls-56{fill:#10c29f;}.cls-57{fill:#11c19f;}.cls-58{fill:#11c09f;}.cls-59{fill:#11bfa0;}.cls-60{fill:#12bea1;}.cls-61{fill:#12bda1;}.cls-62{fill:#12bca1;}.cls-63{fill:#13bca2;}.cls-64{fill:#13bba2;}.cls-65{fill:#13baa2;}.cls-66{fill:#13b9a3;}.cls-67{fill:#14b9a3;}.cls-68{fill:#14b8a4;}.cls-69{fill:#14b7a4;}.cls-70{fill:#15b6a4;}.cls-71{fill:#15b6a5;}.cls-72{fill:#15b5a5;}.cls-73{fill:#15b4a5;}.cls-74{fill:#16b3a6;}.cls-75{fill:#16b2a7;}.cls-76{fill:#17b1a7;}.cls-77{fill:#17b0a7;}.cls-78{fill:#17b0a8;}.cls-79{fill:#17afa8;}.cls-80{fill:#18aea8;}.cls-81{fill:#18ada9;}.cls-82{fill:#19aca9;}.cls-83{fill:#19abaa;}.cls-84{fill:#19aaaa;}.cls-85{fill:#19aaab;}.cls-86{fill:#1aa9ab;}.cls-87{fill:#1aa8ab;}.cls-88{fill:#1aa7ac;}.cls-89{fill:#1ba6ac;}.cls-90{fill:#1ba5ad;}.cls-91{fill:#1ba4ad;}.cls-92{fill:#1ca4ae;}.cls-93{fill:#1ca3ae;}.cls-94{fill:#1ca2ae;}.cls-95{fill:#1ca1af;}.cls-96{fill:#1da1af;}.cls-97{fill:#1da0af;}.cls-98{fill:#1d9fb0;}.cls-99{fill:#1e9eb0;}.cls-100{fill:#1e9eb1;}.cls-101{fill:#1e9db1;}.cls-102{fill:#1e9cb1;}.cls-103{fill:#1f9bb2;}.cls-104{fill:#1f9ab2;}.cls-105{fill:#2099b3;}.cls-106{fill:#2098b3;}.cls-107{fill:#2098b4;}.cls-108{fill:#2097b4;}.cls-109{fill:#2196b4;}.cls-110{fill:#2195b5;}.cls-111{fill:#2294b5;}.cls-112{fill:#2293b6;}.cls-113{fill:#2292b6;}.cls-114{fill:#2292b7;}.cls-115{fill:#2391b7;}.cls-116{fill:#2390b7;}.cls-117{fill:#238fb8;}.cls-118{fill:#248eb8;}.cls-119{fill:#248db9;}.cls-120{fill:#248cb9;}.cls-121{fill:#258cba;}.cls-122{fill:#258bba;}.cls-123{fill:#258aba;}.cls-124{fill:#2589bb;}.cls-125{fill:#2689bb;}.cls-126{fill:#2688bb;}.cls-127{fill:#2687bc;}.cls-128{fill:#2786bc;}.cls-129{fill:#2786bd;}.cls-130{fill:#2785bd;}.cls-131{fill:#2784bd;}.cls-132{fill:#2883be;}.cls-133{fill:#2882be;}.cls-134{fill:#2981bf;}.cls-135{fill:#2980bf;}.cls-136{fill:#2980c0;}.cls-137{fill:#297fc0;}.cls-138{fill:#2a7ec0;}.cls-139{fill:#2a7dc1;}.cls-140{fill:#2b7cc1;}.cls-141{fill:#2b7bc2;}.cls-142{fill:#2b7ac2;}.cls-143{fill:#2b7ac3;}.cls-144{fill:#2c79c3;}.cls-145{fill:#2c78c3;}.cls-146{fill:#2c77c4;}.cls-147{fill:#2d76c4;}.cls-148{fill:#2d75c5;}.cls-149{fill:#2d74c5;}.cls-150{fill:#2e74c5;}.cls-151{fill:#2e73c6;}.cls-152{fill:#2e72c6;}.cls-153{fill:#2e71c7;}.cls-154{fill:#2f71c7;}.cls-155{fill:#2f70c7;}.cls-156{fill:#2f6fc8;}.cls-157{fill:#306ec8;}.cls-158{fill:#306dc9;}.cls-159{fill:#306cc9;}.cls-160{fill:#316bca;}.cls-161{fill:#316aca;}.cls-162{fill:#3269cb;}.cls-163{fill:#3268cb;}.cls-164{fill:#3267cc;}.cls-165{fill:#36c;}.cls-166{fill:#3365cd;}.cls-167{fill:#3464cd;}.cls-168{fill:#3463ce;}.cls-169{fill:#3462ce;}.cls-170{fill:#3561cf;}.cls-171{fill:#3560cf;}.cls-172{fill:#355fd0;}.cls-173{fill:#365fd0;}.cls-174{fill:#365ed0;}.cls-175{fill:#365dd1;}.cls-176{fill:#365cd1;}.cls-177{fill:#375cd1;}.cls-178{fill:#375bd2;}.cls-179{fill:#375ad2;}.cls-180{fill:#3759d3;}.cls-181{fill:#3859d3;}.cls-182{fill:#3858d3;}.cls-183{fill:#3857d4;}.cls-184{fill:#3956d4;}.cls-185{fill:#3955d5;}.cls-186{fill:#3954d5;}.cls-187{fill:#3a53d6;}.cls-188{fill:#3a52d6;}.cls-189{fill:#3b51d7;}.cls-190{fill:#3b50d7;}.cls-191{fill:#3b4fd8;}.cls-192{fill:#3c4ed8;}.cls-193{fill:#3c4dd9;}.cls-194{fill:#3d4cd9;}.cls-195{fill:#3d4bda;}.cls-196{fill:#3d4ada;}.cls-197{fill:#3e49db;}.cls-198{fill:#3e48db;}.cls-199{fill:#3e47dc;}.cls-200{fill:#3f47dc;}.cls-201{fill:#3f46dc;}.cls-202{fill:#3f45dd;}.cls-203{fill:#3f44dd;}.cls-204{fill:#4044dd;}.cls-205{fill:#4043de;}.cls-206{fill:#4042de;}.cls-207{fill:#4041df;}.cls-208{fill:#4141df;}.cls-209{fill:#4140df;}.cls-210{fill:#413fe0;}.cls-211{fill:#423ee0;}.cls-212{fill:#423de1;}.cls-213{fill:#423ce1;}.cls-214{fill:#433be2;}.cls-215{fill:#433ae2;}.cls-216{fill:#4439e3;}.cls-217{fill:#4438e3;}.cls-218{fill:#4437e4;}.cls-219{fill:#4536e4;}.cls-220{fill:#4535e4;}.cls-221{fill:#4535e5;}.cls-222{fill:#4634e5;}.cls-223{fill:#4633e6;}.cls-224{fill:#4632e6;}.cls-225{fill:#4731e7;}.cls-226{fill:#4730e7;}.cls-227{fill:#472fe7;}.cls-228{fill:#482fe8;}.cls-229{fill:#482ee8;}.cls-230{fill:#482de9;}.cls-231{fill:#482ce9;}.cls-232{fill:#492ce9;}.cls-233{fill:#492bea;}.cls-234{fill:#492aea;}.cls-235{fill:#4a29ea;}.cls-236{fill:#4a29eb;}.cls-237{fill:#4a28eb;}.cls-238{fill:#4a27ec;}.cls-239{fill:#4b26ec;}.cls-240{fill:#4b25ed;}.cls-241{fill:#4b24ed;}.cls-242{fill:#4c23ed;}.cls-243{fill:#4c23ee;}.cls-244{fill:#4c22ee;}.cls-245{fill:#4d21ef;}.cls-246{fill:#4d20ef;}.cls-247{fill:#4d1ff0;}.cls-248{fill:#4e1ef0;}.cls-249{fill:#4e1df0;}.cls-250{fill:#4e1df1;}.cls-251{fill:#4f1cf1;}.cls-252{fill:#4f1bf2;}.cls-253{fill:#4f1af2;}.cls-254{fill:#5019f3;}.cls-255{fill:#5018f3;}.cls-256{fill:#5017f3;}.cls-257{fill:#5117f4;}.cls-258{fill:#5116f4;}.cls-259{fill:#5115f5;}.cls-260{fill:#5114f5;}.cls-261{fill:#5214f5;}.cls-262{fill:#5213f6;}.cls-263{fill:#5212f6;}.cls-264{fill:#5311f6;}.cls-265{fill:#5311f7;}.cls-266{fill:#5310f7;}.cls-267{fill:#530ff8;}.cls-268{fill:#540ef8;}.cls-269{fill:#540df9;}.cls-270{fill:#540cf9;}.cls-271{fill:#550bf9;}.cls-272{fill:#550bfa;}.cls-273{fill:#550afa;}.cls-274{fill:#5609fb;}.cls-275{fill:#5608fb;}.cls-276{fill:#5607fc;}.cls-277{fill:#5706fc;}.cls-278{fill:#5705fc;}.cls-279{fill:#5705fd;}.cls-280{fill:#5804fd;}.cls-281{fill:#5803fe;}.cls-282{fill:#5802fe;}.cls-283{fill:#5901ff;}.cls-284{fill:#5900ff;}.cls-285{fill:#5a01ff;}.cls-286{fill:#5a02ff;}.cls-287{fill:#5b02ff;}.cls-288{fill:#5b03ff;}.cls-289{fill:#5b04ff;}.cls-290{fill:#5c04ff;}.cls-291{fill:#5c05ff;}.cls-292{fill:#5d06ff;}.cls-293{fill:#5d07ff;}.cls-294{fill:#5e07ff;}.cls-295{fill:#5e08ff;}.cls-296{fill:#5f09ff;}.cls-297{fill:#5f0aff;}.cls-298{fill:#600aff;}.cls-299{fill:#600bff;}.cls-300{fill:#610cff;}.cls-301{fill:#610dff;}.cls-302{fill:#620dff;}.cls-303{fill:#620eff;}.cls-304{fill:#630fff;}.cls-305{fill:#6310ff;}.cls-306{fill:#6410ff;}.cls-307{fill:#6411ff;}.cls-308{fill:#6412ff;}.cls-309{fill:#6512ff;}.cls-310{fill:#6513ff;}.cls-311{fill:#6613ff;}.cls-312{fill:#6614ff;}.cls-313{fill:#6615ff;}.cls-314{fill:#6715ff;}.cls-315{fill:#6716ff;}.cls-316{fill:#6816ff;}.cls-317{fill:#6817ff;}.cls-318{fill:#6818ff;}.cls-319{fill:#6918ff;}.cls-320{fill:#6919ff;}.cls-321{fill:#6a1aff;}.cls-322{fill:#6a1bff;}.cls-323{fill:#6b1bff;}.cls-324{fill:#6b1cff;}.cls-325{fill:#6c1dff;}.cls-326{fill:#6c1eff;}.cls-327{fill:#6d1eff;}.cls-328{fill:#6d1fff;}.cls-329{fill:#6d20ff;}.cls-330{fill:#6e20ff;}.cls-331{fill:#6e21ff;}.cls-332{fill:#6f21ff;}.cls-333{fill:#6f22ff;}.cls-334{fill:#7023ff;}.cls-335{fill:#7024ff;}.cls-336{fill:#7124ff;}.cls-337{fill:#7125ff;}.cls-338{fill:#7126ff;}.cls-339{fill:#7226ff;}.cls-340{fill:#7227ff;}.cls-341{fill:#7327ff;}.cls-342{fill:#7328ff;}.cls-343{fill:#7329ff;}.cls-344{fill:#7429ff;}.cls-345{fill:#742aff;}.cls-346{fill:#752bff;}.cls-347{fill:#752cff;}.cls-348{fill:#762cff;}.cls-349{fill:#762dff;}.cls-350{fill:#772dff;}.cls-351{fill:#772eff;}.cls-352{fill:#772fff;}.cls-353{fill:#782fff;}.cls-354{fill:#7830ff;}.cls-355{fill:#7931ff;}.cls-356{fill:#7932ff;}.cls-357{fill:#7a32ff;}.cls-358{fill:#7a33ff;}.cls-359{fill:#7b34ff;}.cls-360{fill:#7b35ff;}.cls-361{fill:#7c35ff;}.cls-362{fill:#7c36ff;}.cls-363{fill:#7c37ff;}.cls-364{fill:#7d37ff;}.cls-365{fill:#7d38ff;}.cls-366{fill:#7e38ff;}.cls-367{fill:#7e39ff;}.cls-368{fill:#7f3aff;}.cls-369{fill:#7f3bff;}.cls-370{fill:#803bff;}.cls-371{fill:#803cff;}.cls-372{fill:#803dff;}.cls-373{fill:#813dff;}.cls-374{fill:#813eff;}.cls-375{fill:#823fff;}.cls-376{fill:#8240ff;}.cls-377{fill:#8340ff;}.cls-378{fill:#8341ff;}.cls-379{fill:#8442ff;}.cls-380{fill:#8443ff;}.cls-381{fill:#8543ff;}.cls-382{fill:#8544ff;}.cls-383{fill:#8645ff;}.cls-384{fill:#8646ff;}.cls-385{fill:#8746ff;}.cls-386{fill:#8747ff;}.cls-387{fill:#8848ff;}.cls-388{fill:#8849ff;}.cls-389{fill:#8949ff;}.cls-390{fill:#894aff;}.cls-391{fill:#894bff;}.cls-392{fill:#8a4bff;}.cls-393{fill:#8a4cff;}.cls-394{fill:#8b4cff;}</style></defs><path class="cls-1" d="M76.5,31.7H87V63H76.5Z"/><path class="cls-1" d="M112,63H100.06L88.87,31.7h11L106,52.79h.12l6.13-21.09h10.93Z"/><path class="cls-1" d="M125.05,31.7h10.49V63H125.05Z"/><path class="cls-2" d="M139.26,31.7h10.3v5.22h.27a9.35,9.35,0,0,1,8.92-5.69c6.57,0,12.47,5,12.47,16.05,0,10.73-5.57,16.12-12.56,16.12A9.24,9.24,0,0,1,149.83,58h-.15V75.31H139.26ZM155,55.31c3.44,0,5.54-2.93,5.54-8s-2.1-8-5.54-8-5.65,3-5.65,8S151.58,55.31,155,55.31Z"/><path class="cls-2" d="M173.87,31.7H184v5.93h.3c1.21-4.33,3.88-6.4,7.43-6.4a11.55,11.55,0,0,1,2.79.35v9.07a13.35,13.35,0,0,0-4.06-.54c-3.47,0-6.13,2.4-6.13,6.46V63H173.87Z"/><path class="cls-2" d="M193.91,47.34c0-9.86,6.19-16.11,16.05-16.11S226,37.48,226,47.34,219.86,63.46,210,63.46,193.91,57.27,193.91,47.34Zm21.5,0c0-5.24-2.16-8.23-5.45-8.23s-5.48,3-5.45,8.23,2.14,8.24,5.45,8.24S215.41,52.61,215.41,47.34Z"/><path class="cls-2" d="M224,67.63h1.66c2.19,0,3.08-.65,3.08-2.78V31.7h10.49V66.21c0,6.52-3.47,9.57-11,9.57H224Z"/><path class="cls-2" d="M241.87,47.34c0-9.6,6.1-16.08,15.61-16.11,9.27,0,15.28,6.25,15.28,16.08v2.34H251.82v.42a5.82,5.82,0,0,0,6,6.22c2.63-.06,4.82-1.25,5.53-3.32h9.19c-1.07,6.37-6.61,10.52-14.87,10.49C247.91,63.49,241.87,57.35,241.87,47.34Zm21.62-3.46a5.85,5.85,0,0,0-11.67,0Z"/><path class="cls-2" d="M274.41,47.34c0-9.54,6-16.08,15.82-16.11,9,0,14.51,5.48,14.63,12.94h-9.48c-.53-3.14-2.34-5-5.06-5C287,39.2,285,42,285,47.34s2,8.15,5.34,8.15c2.57,0,4.56-1.81,5-5.07h9.51c-.18,7.7-5.6,13.07-14.6,13C280.42,63.49,274.41,56.94,274.41,47.34Z"/><path class="cls-2" d="M310.56,53.44V39.76h-4.32V31.7h4.32v-8H321v8h5.92v8.06H321V51.64c0,2.54,1.07,3.29,3.32,3.29,1,0,1.89,0,2.49,0L327,63c-1,0-3,.09-5.36.09C314.3,63,310.56,60.14,310.56,53.44Z"/><circle class="cls-3" cx="65.86" cy="37.13" r="5.58"/><circle class="cls-4" cx="65.33" cy="37.13" r="5.58"/><circle class="cls-5" cx="64.81" cy="37.13" r="5.58"/><circle class="cls-6" cx="64.29" cy="37.14" r="5.58"/><circle class="cls-7" cx="63.77" cy="37.14" r="5.58"/><circle class="cls-8" cx="63.25" cy="37.15" r="5.58"/><circle class="cls-9" cx="62.74" cy="37.16" r="5.57"/><circle class="cls-10" cx="62.23" cy="37.17" r="5.57"/><circle class="cls-11" cx="61.73" cy="37.18" r="5.57"/><circle class="cls-12" cx="61.23" cy="37.19" r="5.57"/><circle class="cls-13" cx="60.73" cy="37.21" r="5.57"/><circle class="cls-14" cx="60.23" cy="37.22" r="5.57"/><circle class="cls-15" cx="59.74" cy="37.24" r="5.57"/><circle class="cls-16" cx="59.25" cy="37.26" r="5.56"/><circle class="cls-16" cx="58.77" cy="37.28" r="5.56"/><circle class="cls-17" cx="58.28" cy="37.3" r="5.56"/><circle class="cls-18" cx="57.8" cy="37.32" r="5.56"/><circle class="cls-19" cx="57.33" cy="37.35" r="5.56"/><circle class="cls-20" cx="56.86" cy="37.38" r="5.56"/><circle class="cls-21" cx="56.39" cy="37.4" r="5.56"/><circle class="cls-22" cx="55.92" cy="37.43" r="5.55"/><circle class="cls-23" cx="55.46" cy="37.46" r="5.55"/><circle class="cls-23" cx="55" cy="37.5" r="5.55"/><circle class="cls-24" cx="54.54" cy="37.53" r="5.55"/><circle class="cls-25" cx="54.08" cy="37.56" r="5.55"/><circle class="cls-26" cx="53.63" cy="37.6" r="5.55"/><circle class="cls-27" cx="53.19" cy="37.64" r="5.54"/><circle class="cls-28" cx="52.74" cy="37.68" r="5.54"/><circle class="cls-29" cx="52.3" cy="37.72" r="5.54"/><circle class="cls-30" cx="51.86" cy="37.76" r="5.54"/><circle class="cls-30" cx="51.43" cy="37.8" r="5.54"/><circle class="cls-31" cx="50.99" cy="37.84" r="5.54"/><circle class="cls-32" cx="50.57" cy="37.89" r="5.54"/><circle class="cls-33" cx="50.14" cy="37.94" r="5.53"/><circle class="cls-34" cx="49.72" cy="37.98" r="5.53"/><circle class="cls-35" cx="49.3" cy="38.03" r="5.53"/><circle class="cls-36" cx="48.88" cy="38.08" r="5.53"/><circle class="cls-37" cx="48.47" cy="38.14" r="5.53"/><circle class="cls-38" cx="48.06" cy="38.19" r="5.53"/><circle class="cls-39" cx="47.65" cy="38.24" r="5.53"/><circle class="cls-40" cx="47.24" cy="38.3" r="5.52"/><circle class="cls-41" cx="46.84" cy="38.35" r="5.52"/><circle class="cls-42" cx="46.44" cy="38.41" r="5.52"/><circle class="cls-43" cx="46.05" cy="38.47" r="5.52"/><circle class="cls-44" cx="45.66" cy="38.53" r="5.52"/><circle class="cls-45" cx="45.27" cy="38.59" r="5.52"/><circle class="cls-45" cx="44.88" cy="38.65" r="5.52"/><circle class="cls-46" cx="44.5" cy="38.72" r="5.51"/><circle class="cls-47" cx="44.12" cy="38.78" r="5.51"/><circle class="cls-48" cx="43.74" cy="38.85" r="5.51"/><circle class="cls-49" cx="43.36" cy="38.92" r="5.51"/><circle class="cls-50" cx="42.99" cy="38.98" r="5.51"/><circle class="cls-51" cx="42.62" cy="39.05" r="5.51"/><circle class="cls-52" cx="42.26" cy="39.12" r="5.51"/><circle class="cls-52" cx="41.9" cy="39.19" r="5.5"/><circle class="cls-53" cx="41.54" cy="39.27" r="5.5"/><circle class="cls-54" cx="41.18" cy="39.34" r="5.5"/><circle class="cls-55" cx="40.83" cy="39.41" r="5.5"/><circle class="cls-56" cx="40.47" cy="39.49" r="5.5"/><circle class="cls-57" cx="40.13" cy="39.57" r="5.5"/><circle class="cls-58" cx="39.78" cy="39.64" r="5.49"/><circle class="cls-59" cx="39.44" cy="39.72" r="5.49"/><circle class="cls-59" cx="39.1" cy="39.8" r="5.49"/><circle class="cls-60" cx="38.76" cy="39.88" r="5.49"/><circle class="cls-61" cx="38.43" cy="39.96" r="5.49"/><circle class="cls-62" cx="38.1" cy="40.05" r="5.49"/><circle class="cls-63" cx="37.77" cy="40.13" r="5.49"/><circle class="cls-64" cx="37.45" cy="40.21" r="5.48"/><circle class="cls-65" cx="37.12" cy="40.3" r="5.48"/><circle class="cls-66" cx="36.81" cy="40.38" r="5.48"/><circle class="cls-67" cx="36.49" cy="40.47" r="5.48"/><circle class="cls-68" cx="36.18" cy="40.56" r="5.48"/><circle class="cls-69" cx="35.87" cy="40.65" r="5.48"/><circle class="cls-70" cx="35.56" cy="40.74" r="5.48"/><circle class="cls-71" cx="35.25" cy="40.83" r="5.47"/><circle class="cls-72" cx="34.95" cy="40.92" r="5.47"/><circle class="cls-73" cx="34.65" cy="41.01" r="5.47"/><circle class="cls-74" cx="34.35" cy="41.1" r="5.47"/><circle class="cls-74" cx="34.06" cy="41.2" r="5.47"/><circle class="cls-75" cx="33.77" cy="41.29" r="5.47"/><circle class="cls-76" cx="33.48" cy="41.39" r="5.47"/><circle class="cls-77" cx="33.2" cy="41.49" r="5.46"/><circle class="cls-78" cx="32.91" cy="41.58" r="5.46"/><circle class="cls-79" cx="32.63" cy="41.68" r="5.46"/><circle class="cls-80" cx="32.36" cy="41.78" r="5.46"/><circle class="cls-81" cx="32.08" cy="41.88" r="5.46"/><circle class="cls-81" cx="31.81" cy="41.98" r="5.46"/><circle class="cls-82" cx="31.54" cy="42.08" r="5.46"/><circle class="cls-83" cx="31.28" cy="42.18" r="5.45"/><circle class="cls-84" cx="31.01" cy="42.28" r="5.45"/><circle class="cls-85" cx="30.75" cy="42.39" r="5.45"/><circle class="cls-86" cx="30.49" cy="42.49" r="5.45"/><circle class="cls-87" cx="30.24" cy="42.59" r="5.45"/><circle class="cls-88" cx="29.99" cy="42.7" r="5.45"/><circle class="cls-88" cx="29.74" cy="42.8" r="5.44"/><circle class="cls-89" cx="29.49" cy="42.91" r="5.44"/><circle class="cls-90" cx="29.24" cy="43.02" r="5.44"/><circle class="cls-91" cx="29" cy="43.13" r="5.44"/><circle class="cls-92" cx="28.76" cy="43.23" r="5.44"/><circle class="cls-93" cx="28.53" cy="43.34" r="5.44"/><circle class="cls-94" cx="28.29" cy="43.45" r="5.44"/><circle class="cls-95" cx="28.06" cy="43.56" r="5.43"/><circle class="cls-96" cx="27.83" cy="43.67" r="5.43"/><circle class="cls-97" cx="27.61" cy="43.78" r="5.43"/><circle class="cls-98" cx="27.38" cy="43.9" r="5.43"/><circle class="cls-99" cx="27.16" cy="44.01" r="5.43"/><circle class="cls-100" cx="26.95" cy="44.12" r="5.43"/><circle class="cls-101" cx="26.73" cy="44.23" r="5.43"/><circle class="cls-102" cx="26.52" cy="44.35" r="5.42"/><circle class="cls-103" cx="26.31" cy="44.46" r="5.42"/><circle class="cls-103" cx="26.1" cy="44.58" r="5.42"/><circle class="cls-104" cx="25.89" cy="44.69" r="5.42"/><circle class="cls-105" cx="25.69" cy="44.81" r="5.42"/><circle class="cls-106" cx="25.49" cy="44.92" r="5.42"/><circle class="cls-107" cx="25.29" cy="45.04" r="5.42"/><circle class="cls-108" cx="25.1" cy="45.16" r="5.41"/><circle class="cls-109" cx="24.91" cy="45.28" r="5.41"/><circle class="cls-110" cx="24.72" cy="45.39" r="5.41"/><circle class="cls-110" cx="24.53" cy="45.51" r="5.41"/><circle class="cls-111" cx="24.35" cy="45.63" r="5.41"/><circle class="cls-112" cx="24.16" cy="45.75" r="5.41"/><circle class="cls-113" cx="23.98" cy="45.87" r="5.41"/><circle class="cls-114" cx="23.81" cy="45.99" r="5.4"/><circle class="cls-115" cx="23.63" cy="46.11" r="5.4"/><circle class="cls-116" cx="23.46" cy="46.23" r="5.4"/><circle class="cls-117" cx="23.29" cy="46.35" r="5.4"/><circle class="cls-117" cx="23.12" cy="46.47" r="5.4"/><circle class="cls-118" cx="22.96" cy="46.6" r="5.4"/><circle class="cls-119" cx="22.8" cy="46.72" r="5.4"/><circle class="cls-120" cx="22.64" cy="46.84" r="5.39"/><circle class="cls-121" cx="22.48" cy="46.96" r="5.39"/><circle class="cls-122" cx="22.33" cy="47.09" r="5.39"/><circle class="cls-123" cx="22.17" cy="47.21" r="5.39"/><circle class="cls-124" cx="22.02" cy="47.33" r="5.39"/><circle class="cls-125" cx="21.88" cy="47.46" r="5.39"/><circle class="cls-126" cx="21.73" cy="47.58" r="5.38"/><circle class="cls-127" cx="21.59" cy="47.71" r="5.38"/><circle class="cls-128" cx="21.45" cy="47.83" r="5.38"/><circle class="cls-129" cx="21.31" cy="47.96" r="5.38"/><circle class="cls-130" cx="21.18" cy="48.08" r="5.38"/><circle class="cls-131" cx="21.04" cy="48.21" r="5.38"/><circle class="cls-132" cx="20.91" cy="48.33" r="5.38"/><circle class="cls-132" cx="20.78" cy="48.46" r="5.37"/><circle class="cls-133" cx="20.66" cy="48.58" r="5.37"/><circle class="cls-134" cx="20.54" cy="48.71" r="5.37"/><circle class="cls-135" cx="20.41" cy="48.83" r="5.37"/><circle class="cls-136" cx="20.3" cy="48.96" r="5.37"/><circle class="cls-137" cx="20.18" cy="49.09" r="5.37"/><circle class="cls-138" cx="20.07" cy="49.21" r="5.37"/><circle class="cls-139" cx="19.95" cy="49.34" r="5.36"/><circle class="cls-139" cx="19.85" cy="49.47" r="5.36"/><circle class="cls-140" cx="19.74" cy="49.59" r="5.36"/><circle class="cls-141" cx="19.63" cy="49.72" r="5.36"/><circle class="cls-142" cx="19.53" cy="49.85" r="5.36"/><circle class="cls-143" cx="19.43" cy="49.97" r="5.36"/><circle class="cls-144" cx="19.33" cy="50.1" r="5.36"/><circle class="cls-145" cx="19.24" cy="50.23" r="5.35"/><circle class="cls-146" cx="19.15" cy="50.35" r="5.35"/><circle class="cls-146" cx="19.05" cy="50.48" r="5.35"/><circle class="cls-147" cx="18.97" cy="50.61" r="5.35"/><circle class="cls-148" cx="18.88" cy="50.73" r="5.35"/><circle class="cls-149" cx="18.8" cy="50.86" r="5.35"/><circle class="cls-150" cx="18.71" cy="50.99" r="5.35"/><circle class="cls-151" cx="18.63" cy="51.11" r="5.34"/><circle class="cls-152" cx="18.56" cy="51.24" r="5.34"/><circle class="cls-153" cx="18.48" cy="51.37" r="5.34"/><circle class="cls-154" cx="18.41" cy="51.49" r="5.34"/><circle class="cls-155" cx="18.34" cy="51.62" r="5.34"/><circle class="cls-156" cx="18.27" cy="51.75" r="5.34"/><circle class="cls-157" cx="18.2" cy="51.87" r="5.33"/><circle class="cls-157" cx="18.14" cy="52" r="5.33"/><circle class="cls-158" cx="18.08" cy="52.13" r="5.33"/><circle class="cls-159" cx="18.02" cy="52.25" r="5.33"/><circle class="cls-160" cx="17.96" cy="52.38" r="5.33"/><circle class="cls-160" cx="17.91" cy="52.5" r="5.33"/><circle class="cls-161" cx="17.85" cy="52.63" r="5.33"/><circle class="cls-162" cx="17.8" cy="52.75" r="5.32"/><circle class="cls-163" cx="17.75" cy="52.88" r="5.32"/><circle class="cls-163" cx="17.71" cy="53" r="5.32"/><circle class="cls-164" cx="17.66" cy="53.13" r="5.32"/><circle class="cls-165" cx="17.62" cy="53.25" r="5.32"/><circle class="cls-166" cx="17.58" cy="53.38" r="5.32"/><circle class="cls-166" cx="17.54" cy="53.5" r="5.32"/><circle class="cls-167" cx="17.51" cy="53.63" r="5.31"/><circle class="cls-168" cx="17.47" cy="53.75" r="5.31"/><circle class="cls-169" cx="17.44" cy="53.87" r="5.31"/><circle class="cls-169" cx="17.41" cy="54" r="5.31"/><circle class="cls-170" cx="17.39" cy="54.12" r="5.31"/><circle class="cls-171" cx="17.36" cy="54.24" r="5.31"/><circle class="cls-172" cx="17.34" cy="54.36" r="5.31"/><circle class="cls-173" cx="17.32" cy="54.49" r="5.3"/><circle class="cls-174" cx="17.3" cy="54.61" r="5.3"/><circle class="cls-175" cx="17.28" cy="54.73" r="5.3"/><circle class="cls-176" cx="17.26" cy="54.85" r="5.3"/><circle class="cls-177" cx="17.25" cy="54.97" r="5.3"/><circle class="cls-178" cx="17.24" cy="55.09" r="5.3"/><circle class="cls-179" cx="17.23" cy="55.21" r="5.3"/><circle class="cls-180" cx="17.23" cy="55.33" r="5.29"/><circle class="cls-181" cx="17.22" cy="55.45" r="5.29"/><circle class="cls-182" cx="17.22" cy="55.57" r="5.29"/><circle class="cls-183" cx="17.22" cy="55.68" r="5.29"/><circle class="cls-184" cx="17.22" cy="55.8" r="5.29"/><circle class="cls-184" cx="17.22" cy="55.92" r="5.29"/><circle class="cls-185" cx="17.23" cy="56.04" r="5.28"/><circle class="cls-186" cx="17.23" cy="56.15" r="5.28"/><circle class="cls-187" cx="17.24" cy="56.27" r="5.28"/><circle class="cls-187" cx="17.25" cy="56.38" r="5.28"/><circle class="cls-188" cx="17.27" cy="56.5" r="5.28"/><circle class="cls-189" cx="17.28" cy="56.61" r="5.28"/><circle class="cls-190" cx="17.3" cy="56.73" r="5.28"/><circle class="cls-190" cx="17.32" cy="56.84" r="5.27"/><circle class="cls-191" cx="17.34" cy="56.95" r="5.27"/><circle class="cls-192" cx="17.36" cy="57.07" r="5.27"/><circle class="cls-193" cx="17.39" cy="57.18" r="5.27"/><circle class="cls-193" cx="17.41" cy="57.29" r="5.27"/><circle class="cls-194" cx="17.44" cy="57.4" r="5.27"/><circle class="cls-195" cx="17.47" cy="57.51" r="5.27"/><circle class="cls-196" cx="17.51" cy="57.62" r="5.26"/><circle class="cls-196" cx="17.54" cy="57.73" r="5.26"/><circle class="cls-197" cx="17.58" cy="57.84" r="5.26"/><circle class="cls-198" cx="17.62" cy="57.94" r="5.26"/><circle class="cls-199" cx="17.66" cy="58.05" r="5.26"/><circle class="cls-200" cx="17.7" cy="58.16" r="5.26"/><circle class="cls-201" cx="17.74" cy="58.26" r="5.26"/><circle class="cls-202" cx="17.79" cy="58.37" r="5.25"/><circle class="cls-203" cx="17.83" cy="58.47" r="5.25"/><circle class="cls-204" cx="17.88" cy="58.58" r="5.25"/><circle class="cls-205" cx="17.94" cy="58.68" r="5.25"/><circle class="cls-206" cx="17.99" cy="58.78" r="5.25"/><circle class="cls-207" cx="18.04" cy="58.88" r="5.25"/><circle class="cls-208" cx="18.1" cy="58.99" r="5.25"/><circle class="cls-209" cx="18.16" cy="59.09" r="5.24"/><circle class="cls-210" cx="18.22" cy="59.19" r="5.24"/><circle class="cls-211" cx="18.28" cy="59.28" r="5.24"/><circle class="cls-211" cx="18.34" cy="59.38" r="5.24"/><circle class="cls-212" cx="18.41" cy="59.48" r="5.24"/><circle class="cls-213" cx="18.48" cy="59.58" r="5.24"/><circle class="cls-214" cx="18.55" cy="59.67" r="5.23"/><circle class="cls-214" cx="18.62" cy="59.77" r="5.23"/><circle class="cls-215" cx="18.69" cy="59.86" r="5.23"/><circle class="cls-216" cx="18.77" cy="59.95" r="5.23"/><circle class="cls-217" cx="18.84" cy="60.05" r="5.23"/><circle class="cls-217" cx="18.92" cy="60.14" r="5.23"/><circle class="cls-218" cx="19" cy="60.23" r="5.23"/><circle class="cls-219" cx="19.08" cy="60.32" r="5.22"/><circle class="cls-220" cx="19.16" cy="60.41" r="5.22"/><circle class="cls-221" cx="19.25" cy="60.49" r="5.22"/><circle class="cls-222" cx="19.34" cy="60.58" r="5.22"/><circle class="cls-223" cx="19.42" cy="60.67" r="5.22"/><circle class="cls-224" cx="19.51" cy="60.75" r="5.22"/><circle class="cls-224" cx="19.61" cy="60.84" r="5.22"/><circle class="cls-225" cx="19.7" cy="60.92" r="5.21"/><circle class="cls-226" cx="19.79" cy="61" r="5.21"/><circle class="cls-227" cx="19.89" cy="61.08" r="5.21"/><circle class="cls-228" cx="19.99" cy="61.17" r="5.21"/><circle class="cls-229" cx="20.09" cy="61.24" r="5.21"/><circle class="cls-230" cx="20.19" cy="61.32" r="5.21"/><circle class="cls-231" cx="20.3" cy="61.4" r="5.21"/><circle class="cls-232" cx="20.4" cy="61.48" r="5.2"/><circle class="cls-233" cx="20.51" cy="61.55" r="5.2"/><circle class="cls-234" cx="20.62" cy="61.63" r="5.2"/><circle class="cls-235" cx="20.73" cy="61.7" r="5.2"/><circle class="cls-236" cx="20.84" cy="61.77" r="5.2"/><circle class="cls-237" cx="20.95" cy="61.85" r="5.2"/><circle class="cls-238" cx="21.07" cy="61.92" r="5.2"/><circle class="cls-239" cx="21.18" cy="61.98" r="5.19"/><circle class="cls-239" cx="21.3" cy="62.05" r="5.19"/><circle class="cls-240" cx="21.42" cy="62.12" r="5.19"/><circle class="cls-241" cx="21.54" cy="62.19" r="5.19"/><circle class="cls-242" cx="21.66" cy="62.25" r="5.19"/><circle class="cls-243" cx="21.79" cy="62.31" r="5.19"/><circle class="cls-244" cx="21.91" cy="62.38" r="5.18"/><circle class="cls-245" cx="22.04" cy="62.44" r="5.18"/><circle class="cls-246" cx="22.17" cy="62.5" r="5.18"/><circle class="cls-246" cx="22.3" cy="62.56" r="5.18"/><circle class="cls-247" cx="22.43" cy="62.62" r="5.18"/><circle class="cls-248" cx="22.57" cy="62.67" r="5.18"/><circle class="cls-249" cx="22.7" cy="62.73" r="5.18"/><circle class="cls-250" cx="22.84" cy="62.78" r="5.17"/><circle class="cls-251" cx="22.97" cy="62.84" r="5.17"/><circle class="cls-252" cx="23.11" cy="62.89" r="5.17"/><circle class="cls-253" cx="23.26" cy="62.94" r="5.17"/><circle class="cls-253" cx="23.4" cy="62.99" r="5.17"/><circle class="cls-254" cx="23.54" cy="63.04" r="5.17"/><circle class="cls-255" cx="23.69" cy="63.08" r="5.17"/><circle class="cls-256" cx="23.83" cy="63.13" r="5.16"/><circle class="cls-257" cx="23.98" cy="63.17" r="5.16"/><circle class="cls-258" cx="24.13" cy="63.22" r="5.16"/><circle class="cls-259" cx="24.28" cy="63.26" r="5.16"/><circle class="cls-260" cx="24.44" cy="63.3" r="5.16"/><circle class="cls-261" cx="24.59" cy="63.34" r="5.16"/><circle class="cls-262" cx="24.75" cy="63.37" r="5.16"/><circle class="cls-263" cx="24.9" cy="63.41" r="5.15"/><circle class="cls-264" cx="25.06" cy="63.45" r="5.15"/><circle class="cls-265" cx="25.22" cy="63.48" r="5.15"/><circle class="cls-266" cx="25.38" cy="63.51" r="5.15"/><circle class="cls-267" cx="25.55" cy="63.54" r="5.15"/><circle class="cls-268" cx="25.71" cy="63.57" r="5.15"/><circle class="cls-268" cx="25.87" cy="63.6" r="5.15"/><circle class="cls-269" cx="26.04" cy="63.63" r="5.14"/><circle class="cls-270" cx="26.21" cy="63.65" r="5.14"/><circle class="cls-271" cx="26.38" cy="63.68" r="5.14"/><circle class="cls-272" cx="26.55" cy="63.7" r="5.14"/><circle class="cls-273" cx="26.72" cy="63.72" r="5.14"/><circle class="cls-274" cx="26.9" cy="63.74" r="5.14"/><circle class="cls-275" cx="27.07" cy="63.76" r="5.13"/><circle class="cls-275" cx="27.25" cy="63.77" r="5.13"/><circle class="cls-276" cx="27.43" cy="63.79" r="5.13"/><circle class="cls-277" cx="27.6" cy="63.8" r="5.13"/><circle class="cls-278" cx="27.78" cy="63.81" r="5.13"/><circle class="cls-279" cx="27.97" cy="63.82" r="5.13"/><circle class="cls-280" cx="28.15" cy="63.83" r="5.13"/><circle class="cls-281" cx="28.33" cy="63.84" r="5.12"/><circle class="cls-282" cx="28.52" cy="63.84" r="5.12"/><circle class="cls-282" cx="28.7" cy="63.85" r="5.12"/><circle class="cls-283" cx="28.89" cy="63.85" r="5.12"/><circle class="cls-284" cx="29.08" cy="63.85" r="5.12"/><circle class="cls-284" cx="29.39" cy="63.85" r="5.12"/><circle class="cls-283" cx="29.7" cy="63.84" r="5.12"/><circle class="cls-285" cx="30" cy="63.84" r="5.12"/><circle class="cls-285" cx="30.3" cy="63.83" r="5.13"/><circle class="cls-285" cx="30.6" cy="63.81" r="5.13"/><circle class="cls-286" cx="30.89" cy="63.8" r="5.13"/><circle class="cls-286" cx="31.19" cy="63.78" r="5.13"/><circle class="cls-286" cx="31.48" cy="63.75" r="5.13"/><circle class="cls-287" cx="31.77" cy="63.73" r="5.13"/><circle class="cls-288" cx="32.05" cy="63.7" r="5.13"/><circle class="cls-288" cx="32.34" cy="63.67" r="5.14"/><circle class="cls-288" cx="32.62" cy="63.64" r="5.14"/><circle class="cls-288" cx="32.9" cy="63.6" r="5.14"/><circle class="cls-289" cx="33.17" cy="63.56" r="5.14"/><circle class="cls-290" cx="33.45" cy="63.52" r="5.14"/><circle class="cls-290" cx="33.72" cy="63.47" r="5.14"/><circle class="cls-291" cx="33.98" cy="63.43" r="5.15"/><circle class="cls-291" cx="34.25" cy="63.38" r="5.15"/><circle class="cls-291" cx="34.51" cy="63.32" r="5.15"/><circle class="cls-291" cx="34.77" cy="63.27" r="5.15"/><circle class="cls-292" cx="35.03" cy="63.21" r="5.15"/><circle class="cls-292" cx="35.29" cy="63.15" r="5.15"/><circle class="cls-292" cx="35.54" cy="63.09" r="5.16"/><circle class="cls-292" cx="35.79" cy="63.02" r="5.16"/><circle class="cls-293" cx="36.04" cy="62.95" r="5.16"/><circle class="cls-294" cx="36.29" cy="62.88" r="5.16"/><circle class="cls-294" cx="36.53" cy="62.81" r="5.16"/><circle class="cls-294" cx="36.77" cy="62.73" r="5.16"/><circle class="cls-295" cx="37.01" cy="62.65" r="5.17"/><circle class="cls-295" cx="37.24" cy="62.57" r="5.17"/><circle class="cls-295" cx="37.48" cy="62.49" r="5.17"/><circle class="cls-296" cx="37.71" cy="62.4" r="5.17"/><circle class="cls-296" cx="37.94" cy="62.32" r="5.17"/><circle class="cls-296" cx="38.16" cy="62.23" r="5.17"/><circle class="cls-296" cx="38.39" cy="62.13" r="5.18"/><circle class="cls-297" cx="38.61" cy="62.04" r="5.18"/><circle class="cls-297" cx="38.82" cy="61.94" r="5.18"/><circle class="cls-298" cx="39.04" cy="61.84" r="5.18"/><circle class="cls-298" cx="39.25" cy="61.74" r="5.18"/><circle class="cls-299" cx="39.46" cy="61.64" r="5.18"/><circle class="cls-299" cx="39.67" cy="61.53" r="5.18"/><circle class="cls-299" cx="39.88" cy="61.42" r="5.19"/><circle class="cls-299" cx="40.08" cy="61.31" r="5.19"/><circle class="cls-300" cx="40.28" cy="61.2" r="5.19"/><circle class="cls-300" cx="40.48" cy="61.08" r="5.19"/><circle class="cls-300" cx="40.67" cy="60.97" r="5.19"/><circle class="cls-301" cx="40.86" cy="60.85" r="5.19"/><circle class="cls-301" cx="41.05" cy="60.73" r="5.2"/><circle class="cls-302" cx="41.24" cy="60.6" r="5.2"/><circle class="cls-302" cx="41.43" cy="60.48" r="5.2"/><circle class="cls-303" cx="41.61" cy="60.35" r="5.2"/><circle class="cls-303" cx="41.79" cy="60.22" r="5.2"/><circle class="cls-303" cx="41.97" cy="60.09" r="5.2"/><circle class="cls-303" cx="42.14" cy="59.96" r="5.21"/><circle class="cls-304" cx="42.31" cy="59.82" r="5.21"/><circle class="cls-304" cx="42.48" cy="59.69" r="5.21"/><circle class="cls-304" cx="42.65" cy="59.55" r="5.21"/><circle class="cls-305" cx="42.82" cy="59.41" r="5.21"/><circle class="cls-305" cx="42.98" cy="59.27" r="5.21"/><circle class="cls-305" cx="43.14" cy="59.12" r="5.22"/><circle class="cls-306" cx="43.29" cy="58.98" r="5.22"/><circle class="cls-307" cx="43.45" cy="58.83" r="5.22"/><circle class="cls-307" cx="43.6" cy="58.68" r="5.22"/><circle class="cls-307" cx="43.75" cy="58.53" r="5.22"/><circle class="cls-307" cx="43.9" cy="58.38" r="5.22"/><circle class="cls-308" cx="44.04" cy="58.22" r="5.23"/><circle class="cls-309" cx="44.18" cy="58.07" r="5.23"/><circle class="cls-309" cx="44.32" cy="57.91" r="5.23"/><circle class="cls-309" cx="44.46" cy="57.75" r="5.23"/><circle class="cls-310" cx="44.59" cy="57.59" r="5.23"/><circle class="cls-310" cx="44.72" cy="57.42" r="5.23"/><circle class="cls-311" cx="44.85" cy="57.26" r="5.23"/><circle class="cls-312" cx="44.98" cy="57.1" r="5.24"/><circle class="cls-312" cx="45.1" cy="56.93" r="5.24"/><circle class="cls-312" cx="45.22" cy="56.76" r="5.24"/><circle class="cls-312" cx="45.34" cy="56.59" r="5.24"/><circle class="cls-313" cx="45.45" cy="56.42" r="5.24"/><circle class="cls-314" cx="45.57" cy="56.25" r="5.24"/><circle class="cls-314" cx="45.68" cy="56.07" r="5.25"/><circle class="cls-314" cx="45.79" cy="55.9" r="5.25"/><circle class="cls-315" cx="45.89" cy="55.72" r="5.25"/><circle class="cls-315" cx="45.99" cy="55.54" r="5.25"/><circle class="cls-315" cx="46.09" cy="55.36" r="5.25"/><circle class="cls-316" cx="46.19" cy="55.18" r="5.25"/><circle class="cls-317" cx="46.29" cy="55" r="5.26"/><circle class="cls-317" cx="46.38" cy="54.82" r="5.26"/><circle class="cls-317" cx="46.47" cy="54.63" r="5.26"/><circle class="cls-318" cx="46.56" cy="54.44" r="5.26"/><circle class="cls-318" cx="46.64" cy="54.26" r="5.26"/><circle class="cls-319" cx="46.72" cy="54.07" r="5.26"/><circle class="cls-319" cx="46.8" cy="53.88" r="5.27"/><circle class="cls-320" cx="46.88" cy="53.69" r="5.27"/><circle class="cls-320" cx="46.95" cy="53.5" r="5.27"/><circle class="cls-320" cx="47.02" cy="53.31" r="5.27"/><circle class="cls-320" cx="47.09" cy="53.11" r="5.27"/><circle class="cls-321" cx="47.16" cy="52.92" r="5.27"/><circle class="cls-321" cx="47.22" cy="52.72" r="5.28"/><circle class="cls-321" cx="47.28" cy="52.52" r="5.28"/><circle class="cls-321" cx="47.34" cy="52.33" r="5.28"/><circle class="cls-322" cx="47.4" cy="52.13" r="5.28"/><circle class="cls-323" cx="47.45" cy="51.93" r="5.28"/><circle class="cls-323" cx="47.5" cy="51.73" r="5.28"/><circle class="cls-324" cx="47.55" cy="51.53" r="5.28"/><circle class="cls-324" cx="47.6" cy="51.32" r="5.29"/><circle class="cls-324" cx="47.64" cy="51.12" r="5.29"/><circle class="cls-324" cx="47.68" cy="50.92" r="5.29"/><circle class="cls-325" cx="47.72" cy="50.71" r="5.29"/><circle class="cls-325" cx="47.75" cy="50.51" r="5.29"/><circle class="cls-325" cx="47.79" cy="50.3" r="5.29"/><circle class="cls-325" cx="47.81" cy="50.09" r="5.3"/><circle class="cls-326" cx="47.84" cy="49.89" r="5.3"/><circle class="cls-326" cx="47.87" cy="49.68" r="5.3"/><circle class="cls-327" cx="47.89" cy="49.47" r="5.3"/><circle class="cls-327" cx="47.91" cy="49.26" r="5.3"/><circle class="cls-328" cx="47.92" cy="49.05" r="5.3"/><circle class="cls-328" cx="47.94" cy="48.84" r="5.31"/><circle class="cls-328" cx="47.95" cy="48.63" r="5.31"/><circle class="cls-329" cx="47.96" cy="48.41" r="5.31"/><circle class="cls-330" cx="47.96" cy="48.2" r="5.31"/><circle class="cls-330" cx="47.97" cy="47.99" r="5.31"/><circle class="cls-330" cx="47.97" cy="47.77" r="5.31"/><circle class="cls-331" cx="47.97" cy="47.56" r="5.32"/><circle class="cls-331" cx="47.96" cy="47.34" r="5.32"/><circle class="cls-332" cx="47.96" cy="47.13" r="5.32"/><circle class="cls-332" cx="47.95" cy="46.91" r="5.32"/><circle class="cls-333" cx="47.93" cy="46.7" r="5.32"/><circle class="cls-333" cx="47.92" cy="46.48" r="5.32"/><circle class="cls-333" cx="47.9" cy="46.26" r="5.33"/><circle class="cls-333" cx="47.88" cy="46.05" r="5.33"/><circle class="cls-334" cx="47.86" cy="45.83" r="5.33"/><circle class="cls-334" cx="47.83" cy="45.61" r="5.33"/><circle class="cls-334" cx="47.8" cy="45.39" r="5.33"/><circle class="cls-335" cx="47.77" cy="45.18" r="5.33"/><circle class="cls-335" cx="47.74" cy="44.96" r="5.33"/><circle class="cls-335" cx="47.7" cy="44.74" r="5.34"/><circle class="cls-336" cx="47.66" cy="44.52" r="5.34"/><circle class="cls-337" cx="47.62" cy="44.3" r="5.34"/><circle class="cls-337" cx="47.58" cy="44.08" r="5.34"/><circle class="cls-337" cx="47.53" cy="43.86" r="5.34"/><circle class="cls-337" cx="47.48" cy="43.64" r="5.34"/><circle class="cls-338" cx="47.43" cy="43.42" r="5.35"/><circle class="cls-339" cx="47.37" cy="43.2" r="5.35"/><circle class="cls-339" cx="47.32" cy="42.98" r="5.35"/><circle class="cls-340" cx="47.26" cy="42.76" r="5.35"/><circle class="cls-340" cx="47.19" cy="42.55" r="5.35"/><circle class="cls-340" cx="47.13" cy="42.33" r="5.35"/><circle class="cls-341" cx="47.06" cy="42.11" r="5.36"/><circle class="cls-342" cx="46.99" cy="41.89" r="5.36"/><circle class="cls-342" cx="46.91" cy="41.67" r="5.36"/><circle class="cls-342" cx="46.84" cy="41.45" r="5.36"/><circle class="cls-342" cx="46.76" cy="41.23" r="5.36"/><circle class="cls-343" cx="46.68" cy="41.01" r="5.36"/><circle class="cls-344" cx="46.59" cy="40.79" r="5.37"/><circle class="cls-344" cx="46.51" cy="40.57" r="5.37"/><circle class="cls-344" cx="46.42" cy="40.35" r="5.37"/><circle class="cls-345" cx="46.32" cy="40.14" r="5.37"/><circle class="cls-345" cx="46.23" cy="39.92" r="5.37"/><circle class="cls-345" cx="46.13" cy="39.7" r="5.37"/><circle class="cls-346" cx="46.03" cy="39.48" r="5.38"/><circle class="cls-346" cx="45.93" cy="39.27" r="5.38"/><circle class="cls-346" cx="45.82" cy="39.05" r="5.38"/><circle class="cls-346" cx="45.71" cy="38.83" r="5.38"/><circle class="cls-347" cx="45.6" cy="38.62" r="5.38"/><circle class="cls-347" cx="45.49" cy="38.4" r="5.38"/><circle class="cls-348" cx="45.37" cy="38.19" r="5.38"/><circle class="cls-348" cx="45.25" cy="37.97" r="5.39"/><circle class="cls-349" cx="45.13" cy="37.76" r="5.39"/><circle class="cls-349" cx="45" cy="37.54" r="5.39"/><circle class="cls-349" cx="44.88" cy="37.33" r="5.39"/><circle class="cls-350" cx="44.75" cy="37.12" r="5.39"/><circle class="cls-351" cx="44.61" cy="36.9" r="5.39"/><circle class="cls-351" cx="44.48" cy="36.69" r="5.4"/><circle class="cls-351" cx="44.34" cy="36.48" r="5.4"/><circle class="cls-352" cx="44.2" cy="36.27" r="5.4"/><circle class="cls-352" cx="44.06" cy="36.06" r="5.4"/><circle class="cls-353" cx="43.91" cy="35.85" r="5.4"/><circle class="cls-353" cx="43.76" cy="35.64" r="5.4"/><circle class="cls-354" cx="43.61" cy="35.44" r="5.41"/><circle class="cls-354" cx="43.45" cy="35.23" r="5.41"/><circle class="cls-354" cx="43.3" cy="35.02" r="5.41"/><circle class="cls-354" cx="43.14" cy="34.82" r="5.41"/><circle class="cls-355" cx="42.97" cy="34.61" r="5.41"/><circle class="cls-355" cx="42.81" cy="34.41" r="5.41"/><circle class="cls-355" cx="42.64" cy="34.21" r="5.42"/><circle class="cls-355" cx="42.47" cy="34" r="5.42"/><circle class="cls-356" cx="42.3" cy="33.8" r="5.42"/><circle class="cls-356" cx="42.12" cy="33.6" r="5.42"/><circle class="cls-357" cx="41.94" cy="33.4" r="5.42"/><circle class="cls-358" cx="41.76" cy="33.2" r="5.42"/><circle class="cls-358" cx="41.57" cy="33.01" r="5.43"/><circle class="cls-358" cx="41.39" cy="32.81" r="5.43"/><circle class="cls-358" cx="41.2" cy="32.61" r="5.43"/><circle class="cls-359" cx="41" cy="32.42" r="5.43"/><circle class="cls-359" cx="40.81" cy="32.22" r="5.43"/><circle class="cls-359" cx="40.61" cy="32.03" r="5.43"/><circle class="cls-359" cx="40.41" cy="31.84" r="5.43"/><circle class="cls-360" cx="40.21" cy="31.65" r="5.44"/><circle class="cls-360" cx="40" cy="31.46" r="5.44"/><circle class="cls-361" cx="39.79" cy="31.27" r="5.44"/><circle class="cls-361" cx="39.58" cy="31.09" r="5.44"/><circle class="cls-362" cx="39.36" cy="30.9" r="5.44"/><circle class="cls-362" cx="39.15" cy="30.71" r="5.44"/><circle class="cls-362" cx="38.93" cy="30.53" r="5.45"/><circle class="cls-363" cx="38.7" cy="30.35" r="5.45"/><circle class="cls-364" cx="38.48" cy="30.17" r="5.45"/><circle class="cls-364" cx="38.25" cy="29.99" r="5.45"/><circle class="cls-364" cx="38.02" cy="29.81" r="5.45"/><circle class="cls-365" cx="37.79" cy="29.63" r="5.45"/><circle class="cls-365" cx="37.55" cy="29.46" r="5.46"/><circle class="cls-365" cx="37.31" cy="29.28" r="5.46"/><circle class="cls-366" cx="37.07" cy="29.11" r="5.46"/><circle class="cls-367" cx="36.82" cy="28.94" r="5.46"/><circle class="cls-367" cx="36.58" cy="28.77" r="5.46"/><circle class="cls-367" cx="36.33" cy="28.6" r="5.46"/><circle class="cls-367" cx="36.07" cy="28.43" r="5.47"/><circle class="cls-368" cx="35.82" cy="28.27" r="5.47"/><circle class="cls-368" cx="35.56" cy="28.1" r="5.47"/><circle class="cls-368" cx="35.3" cy="27.94" r="5.47"/><circle class="cls-369" cx="35.03" cy="27.78" r="5.47"/><circle class="cls-369" cx="34.77" cy="27.62" r="5.47"/><circle class="cls-369" cx="34.5" cy="27.46" r="5.48"/><circle class="cls-370" cx="34.22" cy="27.31" r="5.48"/><circle class="cls-371" cx="33.95" cy="27.15" r="5.48"/><circle class="cls-371" cx="33.67" cy="27" r="5.48"/><circle class="cls-371" cx="33.39" cy="26.85" r="5.48"/><circle class="cls-371" cx="33.11" cy="26.7" r="5.48"/><circle class="cls-372" cx="32.82" cy="26.55" r="5.48"/><circle class="cls-373" cx="32.53" cy="26.41" r="5.49"/><circle class="cls-373" cx="32.24" cy="26.26" r="5.49"/><circle class="cls-373" cx="31.94" cy="26.12" r="5.49"/><circle class="cls-374" cx="31.65" cy="25.98" r="5.49"/><circle class="cls-374" cx="31.35" cy="25.84" r="5.49"/><circle class="cls-374" cx="31.04" cy="25.71" r="5.49"/><circle class="cls-375" cx="30.74" cy="25.57" r="5.5"/><circle class="cls-375" cx="30.43" cy="25.44" r="5.5"/><circle class="cls-375" cx="30.12" cy="25.31" r="5.5"/><circle class="cls-375" cx="29.8" cy="25.18" r="5.5"/><circle class="cls-376" cx="29.49" cy="25.05" r="5.5"/><circle class="cls-376" cx="29.17" cy="24.93" r="5.5"/><circle class="cls-377" cx="28.84" cy="24.8" r="5.51"/><circle class="cls-377" cx="28.52" cy="24.68" r="5.51"/><circle class="cls-378" cx="28.19" cy="24.56" r="5.51"/><circle class="cls-378" cx="27.86" cy="24.45" r="5.51"/><circle class="cls-378" cx="27.53" cy="24.33" r="5.51"/><circle class="cls-379" cx="27.19" cy="24.22" r="5.51"/><circle class="cls-379" cx="26.85" cy="24.11" r="5.52"/><circle class="cls-379" cx="26.51" cy="24" r="5.52"/><circle class="cls-379" cx="26.16" cy="23.89" r="5.52"/><circle class="cls-380" cx="25.81" cy="23.79" r="5.52"/><circle class="cls-380" cx="25.46" cy="23.69" r="5.52"/><circle class="cls-381" cx="25.11" cy="23.59" r="5.52"/><circle class="cls-381" cx="24.75" cy="23.49" r="5.53"/><circle class="cls-382" cx="24.4" cy="23.4" r="5.53"/><circle class="cls-382" cx="24.03" cy="23.3" r="5.53"/><circle class="cls-382" cx="23.67" cy="23.21" r="5.53"/><circle class="cls-382" cx="23.3" cy="23.13" r="5.53"/><circle class="cls-383" cx="22.93" cy="23.04" r="5.53"/><circle class="cls-383" cx="22.56" cy="22.96" r="5.53"/><circle class="cls-383" cx="22.18" cy="22.88" r="5.54"/><circle class="cls-384" cx="21.8" cy="22.8" r="5.54"/><circle class="cls-384" cx="21.42" cy="22.72" r="5.54"/><circle class="cls-384" cx="21.04" cy="22.65" r="5.54"/><circle class="cls-385" cx="20.65" cy="22.58" r="5.54"/><circle class="cls-386" cx="20.26" cy="22.51" r="5.54"/><circle class="cls-386" cx="19.87" cy="22.44" r="5.55"/><circle class="cls-386" cx="19.47" cy="22.38" r="5.55"/><circle class="cls-386" cx="19.07" cy="22.32" r="5.55"/><circle class="cls-387" cx="18.67" cy="22.26" r="5.55"/><circle class="cls-387" cx="18.27" cy="22.21" r="5.55"/><circle class="cls-387" cx="17.86" cy="22.15" r="5.55"/><circle class="cls-387" cx="17.45" cy="22.1" r="5.56"/><circle class="cls-388" cx="17.04" cy="22.06" r="5.56"/><circle class="cls-388" cx="16.62" cy="22.01" r="5.56"/><circle class="cls-389" cx="16.21" cy="21.97" r="5.56"/><circle class="cls-390" cx="15.78" cy="21.93" r="5.56"/><circle class="cls-390" cx="15.36" cy="21.89" r="5.56"/><circle class="cls-390" cx="14.93" cy="21.86" r="5.57"/><circle class="cls-390" cx="14.5" cy="21.83" r="5.57"/><circle class="cls-391" cx="14.07" cy="21.8" r="5.57"/><circle class="cls-392" cx="13.64" cy="21.78" r="5.57"/><circle class="cls-392" cx="13.2" cy="21.75" r="5.57"/><circle class="cls-392" cx="12.76" cy="21.73" r="5.57"/><circle class="cls-393" cx="12.31" cy="21.72" r="5.58"/><circle class="cls-393" cx="11.87" cy="21.7" r="5.58"/><circle class="cls-393" cx="11.42" cy="21.69" r="5.58"/><circle class="cls-394" cx="10.96" cy="21.69" r="5.58"/><circle class="cls-1" cx="10.51" cy="21.68" r="5.58"/><circle class="cls-1" cx="10.05" cy="21.68" r="5.58"/><circle class="cls-1" cx="20.05" cy="6.68" r="5.58"/><path class="cls-3" d="M76,22.87a5.69,5.69,0,0,1,11.37,0,5.69,5.69,0,0,1-11.37,0Z"/><path class="cls-3" d="M124.58,22.87a5.69,5.69,0,0,1,11.37,0,5.69,5.69,0,0,1-11.37,0Z"/><path class="cls-3" d="M228.26,22.87a5.69,5.69,0,0,1,11.37,0,5.69,5.69,0,0,1-11.37,0Z"/></svg>