<svg id="Calque_1" data-name="Calque 1" xmlns="http://www.w3.org/2000/svg" viewBox="0 0 89 73"><defs><style>.cls-1{fill:#00ed89;}.cls-2{fill:#00ec89;}.cls-3{fill:#01ec8a;}.cls-4{fill:#01eb8a;}.cls-5{fill:#01ea8a;}.cls-6{fill:#01e98b;}.cls-7{fill:#02e98b;}.cls-8{fill:#02e88c;}.cls-9{fill:#02e78c;}.cls-10{fill:#03e68c;}.cls-11{fill:#03e68d;}.cls-12{fill:#03e58d;}.cls-13{fill:#03e48d;}.cls-14{fill:#04e38e;}.cls-15{fill:#04e28f;}.cls-16{fill:#05e18f;}.cls-17{fill:#05e08f;}.cls-18{fill:#05e090;}.cls-19{fill:#05df90;}.cls-20{fill:#06de90;}.cls-21{fill:#06dd91;}.cls-22{fill:#06dc92;}.cls-23{fill:#07db92;}.cls-24{fill:#07da92;}.cls-25{fill:#07da93;}.cls-26{fill:#08d993;}.cls-27{fill:#08d893;}.cls-28{fill:#08d794;}.cls-29{fill:#09d695;}.cls-30{fill:#09d595;}.cls-31{fill:#09d495;}.cls-32{fill:#0ad496;}.cls-33{fill:#0ad396;}.cls-34{fill:#0ad296;}.cls-35{fill:#0ad197;}.cls-36{fill:#0bd197;}.cls-37{fill:#0bd098;}.cls-38{fill:#0bcf98;}.cls-39{fill:#0cce98;}.cls-40{fill:#0cce99;}.cls-41{fill:#0ccd99;}.cls-42{fill:#0ccc99;}.cls-43{fill:#0dcb9a;}.cls-44{fill:#0dca9b;}.cls-45{fill:#0ec99b;}.cls-46{fill:#0ec89b;}.cls-47{fill:#0ec89c;}.cls-48{fill:#0ec79c;}.cls-49{fill:#0fc69c;}.cls-50{fill:#0fc59d;}.cls-51{fill:#0fc49e;}.cls-52{fill:#10c39e;}.cls-53{fill:#10c29e;}.cls-54{fill:#10c29f;}.cls-55{fill:#11c19f;}.cls-56{fill:#11c09f;}.cls-57{fill:#11bfa0;}.cls-58{fill:#12bea1;}.cls-59{fill:#12bda1;}.cls-60{fill:#12bca1;}.cls-61{fill:#13bca2;}.cls-62{fill:#13bba2;}.cls-63{fill:#13baa2;}.cls-64{fill:#13b9a3;}.cls-65{fill:#14b9a3;}.cls-66{fill:#14b8a4;}.cls-67{fill:#14b7a4;}.cls-68{fill:#15b6a4;}.cls-69{fill:#15b6a5;}.cls-70{fill:#15b5a5;}.cls-71{fill:#15b4a5;}.cls-72{fill:#16b3a6;}.cls-73{fill:#16b2a7;}.cls-74{fill:#17b1a7;}.cls-75{fill:#17b0a7;}.cls-76{fill:#17b0a8;}.cls-77{fill:#17afa8;}.cls-78{fill:#18aea8;}.cls-79{fill:#18ada9;}.cls-80{fill:#19aca9;}.cls-81{fill:#19abaa;}.cls-82{fill:#19aaaa;}.cls-83{fill:#19aaab;}.cls-84{fill:#1aa9ab;}.cls-85{fill:#1aa8ab;}.cls-86{fill:#1aa7ac;}.cls-87{fill:#1ba6ac;}.cls-88{fill:#1ba5ad;}.cls-89{fill:#1ba4ad;}.cls-90{fill:#1ca4ae;}.cls-91{fill:#1ca3ae;}.cls-92{fill:#1ca2ae;}.cls-93{fill:#1ca1af;}.cls-94{fill:#1da1af;}.cls-95{fill:#1da0af;}.cls-96{fill:#1d9fb0;}.cls-97{fill:#1e9eb0;}.cls-98{fill:#1e9eb1;}.cls-99{fill:#1e9db1;}.cls-100{fill:#1e9cb1;}.cls-101{fill:#1f9bb2;}.cls-102{fill:#1f9ab2;}.cls-103{fill:#2099b3;}.cls-104{fill:#2098b3;}.cls-105{fill:#2098b4;}.cls-106{fill:#2097b4;}.cls-107{fill:#2196b4;}.cls-108{fill:#2195b5;}.cls-109{fill:#2294b5;}.cls-110{fill:#2293b6;}.cls-111{fill:#2292b6;}.cls-112{fill:#2292b7;}.cls-113{fill:#2391b7;}.cls-114{fill:#2390b7;}.cls-115{fill:#238fb8;}.cls-116{fill:#248eb8;}.cls-117{fill:#248db9;}.cls-118{fill:#248cb9;}.cls-119{fill:#258cba;}.cls-120{fill:#258bba;}.cls-121{fill:#258aba;}.cls-122{fill:#2589bb;}.cls-123{fill:#2689bb;}.cls-124{fill:#2688bb;}.cls-125{fill:#2687bc;}.cls-126{fill:#2786bc;}.cls-127{fill:#2786bd;}.cls-128{fill:#2785bd;}.cls-129{fill:#2784bd;}.cls-130{fill:#2883be;}.cls-131{fill:#2882be;}.cls-132{fill:#2981bf;}.cls-133{fill:#2980bf;}.cls-134{fill:#2980c0;}.cls-135{fill:#297fc0;}.cls-136{fill:#2a7ec0;}.cls-137{fill:#2a7dc1;}.cls-138{fill:#2b7cc1;}.cls-139{fill:#2b7bc2;}.cls-140{fill:#2b7ac2;}.cls-141{fill:#2b7ac3;}.cls-142{fill:#2c79c3;}.cls-143{fill:#2c78c3;}.cls-144{fill:#2c77c4;}.cls-145{fill:#2d76c4;}.cls-146{fill:#2d75c5;}.cls-147{fill:#2d74c5;}.cls-148{fill:#2e74c5;}.cls-149{fill:#2e73c6;}.cls-150{fill:#2e72c6;}.cls-151{fill:#2e71c7;}.cls-152{fill:#2f71c7;}.cls-153{fill:#2f70c7;}.cls-154{fill:#2f6fc8;}.cls-155{fill:#306ec8;}.cls-156{fill:#306dc9;}.cls-157{fill:#306cc9;}.cls-158{fill:#316bca;}.cls-159{fill:#316aca;}.cls-160{fill:#3269cb;}.cls-161{fill:#3268cb;}.cls-162{fill:#3267cc;}.cls-163{fill:#36c;}.cls-164{fill:#3365cd;}.cls-165{fill:#3464cd;}.cls-166{fill:#3463ce;}.cls-167{fill:#3462ce;}.cls-168{fill:#3561cf;}.cls-169{fill:#3560cf;}.cls-170{fill:#355fd0;}.cls-171{fill:#365fd0;}.cls-172{fill:#365ed0;}.cls-173{fill:#365dd1;}.cls-174{fill:#365cd1;}.cls-175{fill:#375cd1;}.cls-176{fill:#375bd2;}.cls-177{fill:#375ad2;}.cls-178{fill:#3759d3;}.cls-179{fill:#3859d3;}.cls-180{fill:#3858d3;}.cls-181{fill:#3857d4;}.cls-182{fill:#3956d4;}.cls-183{fill:#3955d5;}.cls-184{fill:#3954d5;}.cls-185{fill:#3a53d6;}.cls-186{fill:#3a52d6;}.cls-187{fill:#3b51d7;}.cls-188{fill:#3b50d7;}.cls-189{fill:#3b4fd8;}.cls-190{fill:#3c4ed8;}.cls-191{fill:#3c4dd9;}.cls-192{fill:#3d4cd9;}.cls-193{fill:#3d4bda;}.cls-194{fill:#3d4ada;}.cls-195{fill:#3e49db;}.cls-196{fill:#3e48db;}.cls-197{fill:#3e47dc;}.cls-198{fill:#3f47dc;}.cls-199{fill:#3f46dc;}.cls-200{fill:#3f45dd;}.cls-201{fill:#3f44dd;}.cls-202{fill:#4044dd;}.cls-203{fill:#4043de;}.cls-204{fill:#4042de;}.cls-205{fill:#4041df;}.cls-206{fill:#4141df;}.cls-207{fill:#4140df;}.cls-208{fill:#413fe0;}.cls-209{fill:#423ee0;}.cls-210{fill:#423de1;}.cls-211{fill:#423ce1;}.cls-212{fill:#433be2;}.cls-213{fill:#433ae2;}.cls-214{fill:#4439e3;}.cls-215{fill:#4438e3;}.cls-216{fill:#4437e4;}.cls-217{fill:#4536e4;}.cls-218{fill:#4535e4;}.cls-219{fill:#4535e5;}.cls-220{fill:#4634e5;}.cls-221{fill:#4633e6;}.cls-222{fill:#4632e6;}.cls-223{fill:#4731e7;}.cls-224{fill:#4730e7;}.cls-225{fill:#472fe7;}.cls-226{fill:#482fe8;}.cls-227{fill:#482ee8;}.cls-228{fill:#482de9;}.cls-229{fill:#482ce9;}.cls-230{fill:#492ce9;}.cls-231{fill:#492bea;}.cls-232{fill:#492aea;}.cls-233{fill:#4a29ea;}.cls-234{fill:#4a29eb;}.cls-235{fill:#4a28eb;}.cls-236{fill:#4a27ec;}.cls-237{fill:#4b26ec;}.cls-238{fill:#4b25ed;}.cls-239{fill:#4b24ed;}.cls-240{fill:#4c23ed;}.cls-241{fill:#4c23ee;}.cls-242{fill:#4c22ee;}.cls-243{fill:#4d21ef;}.cls-244{fill:#4d20ef;}.cls-245{fill:#4d1ff0;}.cls-246{fill:#4e1ef0;}.cls-247{fill:#4e1df0;}.cls-248{fill:#4e1df1;}.cls-249{fill:#4f1cf1;}.cls-250{fill:#4f1bf2;}.cls-251{fill:#4f1af2;}.cls-252{fill:#5019f3;}.cls-253{fill:#5018f3;}.cls-254{fill:#5017f3;}.cls-255{fill:#5117f4;}.cls-256{fill:#5116f4;}.cls-257{fill:#5115f5;}.cls-258{fill:#5114f5;}.cls-259{fill:#5214f5;}.cls-260{fill:#5213f6;}.cls-261{fill:#5212f6;}.cls-262{fill:#5311f6;}.cls-263{fill:#5311f7;}.cls-264{fill:#5310f7;}.cls-265{fill:#530ff8;}.cls-266{fill:#540ef8;}.cls-267{fill:#540df9;}.cls-268{fill:#540cf9;}.cls-269{fill:#550bf9;}.cls-270{fill:#550bfa;}.cls-271{fill:#550afa;}.cls-272{fill:#5609fb;}.cls-273{fill:#5608fb;}.cls-274{fill:#5607fc;}.cls-275{fill:#5706fc;}.cls-276{fill:#5705fc;}.cls-277{fill:#5705fd;}.cls-278{fill:#5804fd;}.cls-279{fill:#5803fe;}.cls-280{fill:#5802fe;}.cls-281{fill:#5901ff;}.cls-282{fill:#5900ff;}.cls-283{fill:#5a01ff;}.cls-284{fill:#5a02ff;}.cls-285{fill:#5b02ff;}.cls-286{fill:#5b03ff;}.cls-287{fill:#5b04ff;}.cls-288{fill:#5c04ff;}.cls-289{fill:#5c05ff;}.cls-290{fill:#5d06ff;}.cls-291{fill:#5d07ff;}.cls-292{fill:#5e07ff;}.cls-293{fill:#5e08ff;}.cls-294{fill:#5f09ff;}.cls-295{fill:#5f0aff;}.cls-296{fill:#600aff;}.cls-297{fill:#600bff;}.cls-298{fill:#610cff;}.cls-299{fill:#610dff;}.cls-300{fill:#620dff;}.cls-301{fill:#620eff;}.cls-302{fill:#630fff;}.cls-303{fill:#6310ff;}.cls-304{fill:#6410ff;}.cls-305{fill:#6411ff;}.cls-306{fill:#6412ff;}.cls-307{fill:#6512ff;}.cls-308{fill:#6513ff;}.cls-309{fill:#6613ff;}.cls-310{fill:#6614ff;}.cls-311{fill:#6615ff;}.cls-312{fill:#6715ff;}.cls-313{fill:#6716ff;}.cls-314{fill:#6816ff;}.cls-315{fill:#6817ff;}.cls-316{fill:#6818ff;}.cls-317{fill:#6918ff;}.cls-318{fill:#6919ff;}.cls-319{fill:#6a1aff;}.cls-320{fill:#6a1bff;}.cls-321{fill:#6b1bff;}.cls-322{fill:#6b1cff;}.cls-323{fill:#6c1dff;}.cls-324{fill:#6c1eff;}.cls-325{fill:#6d1eff;}.cls-326{fill:#6d1fff;}.cls-327{fill:#6d20ff;}.cls-328{fill:#6e20ff;}.cls-329{fill:#6e21ff;}.cls-330{fill:#6f21ff;}.cls-331{fill:#6f22ff;}.cls-332{fill:#7023ff;}.cls-333{fill:#7024ff;}.cls-334{fill:#7124ff;}.cls-335{fill:#7125ff;}.cls-336{fill:#7126ff;}.cls-337{fill:#7226ff;}.cls-338{fill:#7227ff;}.cls-339{fill:#7327ff;}.cls-340{fill:#7328ff;}.cls-341{fill:#7329ff;}.cls-342{fill:#7429ff;}.cls-343{fill:#742aff;}.cls-344{fill:#752bff;}.cls-345{fill:#752cff;}.cls-346{fill:#762cff;}.cls-347{fill:#762dff;}.cls-348{fill:#772dff;}.cls-349{fill:#772eff;}.cls-350{fill:#772fff;}.cls-351{fill:#782fff;}.cls-352{fill:#7830ff;}.cls-353{fill:#7931ff;}.cls-354{fill:#7932ff;}.cls-355{fill:#7a32ff;}.cls-356{fill:#7a33ff;}.cls-357{fill:#7b34ff;}.cls-358{fill:#7b35ff;}.cls-359{fill:#7c35ff;}.cls-360{fill:#7c36ff;}.cls-361{fill:#7c37ff;}.cls-362{fill:#7d37ff;}.cls-363{fill:#7d38ff;}.cls-364{fill:#7e38ff;}.cls-365{fill:#7e39ff;}.cls-366{fill:#7f3aff;}.cls-367{fill:#7f3bff;}.cls-368{fill:#803bff;}.cls-369{fill:#803cff;}.cls-370{fill:#803dff;}.cls-371{fill:#813dff;}.cls-372{fill:#813eff;}.cls-373{fill:#823fff;}.cls-374{fill:#8240ff;}.cls-375{fill:#8340ff;}.cls-376{fill:#8341ff;}.cls-377{fill:#8442ff;}.cls-378{fill:#8443ff;}.cls-379{fill:#8543ff;}.cls-380{fill:#8544ff;}.cls-381{fill:#8645ff;}.cls-382{fill:#8646ff;}.cls-383{fill:#8746ff;}.cls-384{fill:#8747ff;}.cls-385{fill:#8848ff;}.cls-386{fill:#8849ff;}.cls-387{fill:#8949ff;}.cls-388{fill:#894aff;}.cls-389{fill:#894bff;}.cls-390{fill:#8a4bff;}.cls-391{fill:#8a4cff;}.cls-392{fill:#8b4cff;}.cls-393{fill:#8b4dff;}</style></defs><circle class="cls-1" cx="65.02" cy="39.1" r="5.76"/><circle class="cls-2" cx="64.47" cy="39.1" r="5.76"/><circle class="cls-3" cx="63.93" cy="39.1" r="5.75"/><circle class="cls-4" cx="63.39" cy="39.11" r="5.75"/><circle class="cls-5" cx="62.86" cy="39.11" r="5.75"/><circle class="cls-6" cx="62.33" cy="39.12" r="5.75"/><circle class="cls-7" cx="61.8" cy="39.13" r="5.75"/><circle class="cls-8" cx="61.28" cy="39.14" r="5.75"/><circle class="cls-9" cx="60.76" cy="39.15" r="5.75"/><circle class="cls-10" cx="60.24" cy="39.16" r="5.74"/><circle class="cls-11" cx="59.73" cy="39.18" r="5.74"/><circle class="cls-12" cx="59.21" cy="39.2" r="5.74"/><circle class="cls-13" cx="58.71" cy="39.21" r="5.74"/><circle class="cls-14" cx="58.2" cy="39.23" r="5.74"/><circle class="cls-14" cx="57.7" cy="39.25" r="5.74"/><circle class="cls-15" cx="57.2" cy="39.28" r="5.74"/><circle class="cls-16" cx="56.71" cy="39.3" r="5.73"/><circle class="cls-17" cx="56.22" cy="39.33" r="5.73"/><circle class="cls-18" cx="55.73" cy="39.35" r="5.73"/><circle class="cls-19" cx="55.25" cy="39.38" r="5.73"/><circle class="cls-20" cx="54.77" cy="39.41" r="5.73"/><circle class="cls-21" cx="54.29" cy="39.44" r="5.73"/><circle class="cls-21" cx="53.81" cy="39.48" r="5.72"/><circle class="cls-22" cx="53.34" cy="39.51" r="5.72"/><circle class="cls-23" cx="52.87" cy="39.55" r="5.72"/><circle class="cls-24" cx="52.41" cy="39.58" r="5.72"/><circle class="cls-25" cx="51.95" cy="39.62" r="5.72"/><circle class="cls-26" cx="51.49" cy="39.66" r="5.72"/><circle class="cls-27" cx="51.03" cy="39.7" r="5.72"/><circle class="cls-28" cx="50.58" cy="39.75" r="5.71"/><circle class="cls-28" cx="50.13" cy="39.79" r="5.71"/><circle class="cls-29" cx="49.69" cy="39.84" r="5.71"/><circle class="cls-30" cx="49.24" cy="39.88" r="5.71"/><circle class="cls-31" cx="48.8" cy="39.93" r="5.71"/><circle class="cls-32" cx="48.37" cy="39.98" r="5.71"/><circle class="cls-33" cx="47.94" cy="40.03" r="5.7"/><circle class="cls-34" cx="47.51" cy="40.08" r="5.7"/><circle class="cls-35" cx="47.08" cy="40.14" r="5.7"/><circle class="cls-36" cx="46.66" cy="40.19" r="5.7"/><circle class="cls-37" cx="46.23" cy="40.25" r="5.7"/><circle class="cls-38" cx="45.82" cy="40.3" r="5.7"/><circle class="cls-39" cx="45.4" cy="40.36" r="5.7"/><circle class="cls-40" cx="44.99" cy="40.42" r="5.69"/><circle class="cls-41" cx="44.58" cy="40.48" r="5.69"/><circle class="cls-42" cx="44.18" cy="40.55" r="5.69"/><circle class="cls-43" cx="43.78" cy="40.61" r="5.69"/><circle class="cls-43" cx="43.38" cy="40.67" r="5.69"/><circle class="cls-44" cx="42.98" cy="40.74" r="5.69"/><circle class="cls-45" cx="42.59" cy="40.81" r="5.69"/><circle class="cls-46" cx="42.2" cy="40.87" r="5.68"/><circle class="cls-47" cx="41.82" cy="40.94" r="5.68"/><circle class="cls-48" cx="41.43" cy="41.01" r="5.68"/><circle class="cls-49" cx="41.05" cy="41.08" r="5.68"/><circle class="cls-50" cx="40.68" cy="41.16" r="5.68"/><circle class="cls-50" cx="40.3" cy="41.23" r="5.68"/><circle class="cls-51" cx="39.93" cy="41.3" r="5.67"/><circle class="cls-52" cx="39.56" cy="41.38" r="5.67"/><circle class="cls-53" cx="39.2" cy="41.46" r="5.67"/><circle class="cls-54" cx="38.84" cy="41.53" r="5.67"/><circle class="cls-55" cx="38.48" cy="41.61" r="5.67"/><circle class="cls-56" cx="38.12" cy="41.69" r="5.67"/><circle class="cls-57" cx="37.77" cy="41.77" r="5.67"/><circle class="cls-57" cx="37.42" cy="41.86" r="5.66"/><circle class="cls-58" cx="37.07" cy="41.94" r="5.66"/><circle class="cls-59" cx="36.73" cy="42.02" r="5.66"/><circle class="cls-60" cx="36.39" cy="42.11" r="5.66"/><circle class="cls-61" cx="36.05" cy="42.19" r="5.66"/><circle class="cls-62" cx="35.71" cy="42.28" r="5.66"/><circle class="cls-63" cx="35.38" cy="42.37" r="5.65"/><circle class="cls-64" cx="35.05" cy="42.46" r="5.65"/><circle class="cls-65" cx="34.73" cy="42.55" r="5.65"/><circle class="cls-66" cx="34.4" cy="42.64" r="5.65"/><circle class="cls-67" cx="34.08" cy="42.73" r="5.65"/><circle class="cls-68" cx="33.77" cy="42.82" r="5.65"/><circle class="cls-69" cx="33.45" cy="42.91" r="5.65"/><circle class="cls-70" cx="33.14" cy="43.01" r="5.64"/><circle class="cls-71" cx="32.83" cy="43.1" r="5.64"/><circle class="cls-72" cx="32.52" cy="43.2" r="5.64"/><circle class="cls-72" cx="32.22" cy="43.3" r="5.64"/><circle class="cls-73" cx="31.92" cy="43.39" r="5.64"/><circle class="cls-74" cx="31.62" cy="43.49" r="5.64"/><circle class="cls-75" cx="31.33" cy="43.59" r="5.64"/><circle class="cls-76" cx="31.04" cy="43.69" r="5.63"/><circle class="cls-77" cx="30.75" cy="43.79" r="5.63"/><circle class="cls-78" cx="30.46" cy="43.89" r="5.63"/><circle class="cls-79" cx="30.18" cy="44" r="5.63"/><circle class="cls-79" cx="29.9" cy="44.1" r="5.63"/><circle class="cls-80" cx="29.62" cy="44.2" r="5.63"/><circle class="cls-81" cx="29.35" cy="44.31" r="5.62"/><circle class="cls-82" cx="29.08" cy="44.41" r="5.62"/><circle class="cls-83" cx="28.81" cy="44.52" r="5.62"/><circle class="cls-84" cx="28.54" cy="44.63" r="5.62"/><circle class="cls-85" cx="28.28" cy="44.73" r="5.62"/><circle class="cls-86" cx="28.02" cy="44.84" r="5.62"/><circle class="cls-86" cx="27.76" cy="44.95" r="5.62"/><circle class="cls-87" cx="27.51" cy="45.06" r="5.61"/><circle class="cls-88" cx="27.25" cy="45.17" r="5.61"/><circle class="cls-89" cx="27.01" cy="45.28" r="5.61"/><circle class="cls-90" cx="26.76" cy="45.39" r="5.61"/><circle class="cls-91" cx="26.51" cy="45.51" r="5.61"/><circle class="cls-92" cx="26.27" cy="45.62" r="5.61"/><circle class="cls-93" cx="26.04" cy="45.73" r="5.6"/><circle class="cls-94" cx="25.8" cy="45.85" r="5.6"/><circle class="cls-95" cx="25.57" cy="45.96" r="5.6"/><circle class="cls-96" cx="25.34" cy="46.08" r="5.6"/><circle class="cls-97" cx="25.11" cy="46.19" r="5.6"/><circle class="cls-98" cx="24.88" cy="46.31" r="5.6"/><circle class="cls-99" cx="24.66" cy="46.43" r="5.6"/><circle class="cls-100" cx="24.44" cy="46.54" r="5.59"/><circle class="cls-101" cx="24.23" cy="46.66" r="5.59"/><circle class="cls-101" cx="24.01" cy="46.78" r="5.59"/><circle class="cls-102" cx="23.8" cy="46.9" r="5.59"/><circle class="cls-103" cx="23.59" cy="47.02" r="5.59"/><circle class="cls-104" cx="23.38" cy="47.14" r="5.59"/><circle class="cls-105" cx="23.18" cy="47.26" r="5.59"/><circle class="cls-106" cx="22.98" cy="47.38" r="5.58"/><circle class="cls-107" cx="22.78" cy="47.5" r="5.58"/><circle class="cls-108" cx="22.59" cy="47.62" r="5.58"/><circle class="cls-108" cx="22.39" cy="47.75" r="5.58"/><circle class="cls-109" cx="22.2" cy="47.87" r="5.58"/><circle class="cls-110" cx="22.02" cy="47.99" r="5.58"/><circle class="cls-111" cx="21.83" cy="48.11" r="5.57"/><circle class="cls-112" cx="21.65" cy="48.24" r="5.57"/><circle class="cls-113" cx="21.47" cy="48.36" r="5.57"/><circle class="cls-114" cx="21.29" cy="48.49" r="5.57"/><circle class="cls-115" cx="21.12" cy="48.61" r="5.57"/><circle class="cls-115" cx="20.94" cy="48.74" r="5.57"/><circle class="cls-116" cx="20.77" cy="48.86" r="5.57"/><circle class="cls-117" cx="20.61" cy="48.99" r="5.56"/><circle class="cls-118" cx="20.44" cy="49.12" r="5.56"/><circle class="cls-119" cx="20.28" cy="49.24" r="5.56"/><circle class="cls-120" cx="20.12" cy="49.37" r="5.56"/><circle class="cls-121" cx="19.96" cy="49.5" r="5.56"/><circle class="cls-122" cx="19.81" cy="49.62" r="5.56"/><circle class="cls-123" cx="19.66" cy="49.75" r="5.55"/><circle class="cls-124" cx="19.51" cy="49.88" r="5.55"/><circle class="cls-125" cx="19.36" cy="50.01" r="5.55"/><circle class="cls-126" cx="19.22" cy="50.14" r="5.55"/><circle class="cls-127" cx="19.07" cy="50.26" r="5.55"/><circle class="cls-128" cx="18.93" cy="50.39" r="5.55"/><circle class="cls-129" cx="18.8" cy="50.52" r="5.55"/><circle class="cls-130" cx="18.66" cy="50.65" r="5.54"/><circle class="cls-130" cx="18.53" cy="50.78" r="5.54"/><circle class="cls-131" cx="18.4" cy="50.91" r="5.54"/><circle class="cls-132" cx="18.27" cy="51.04" r="5.54"/><circle class="cls-133" cx="18.15" cy="51.17" r="5.54"/><circle class="cls-134" cx="18.03" cy="51.3" r="5.54"/><circle class="cls-135" cx="17.91" cy="51.43" r="5.54"/><circle class="cls-136" cx="17.79" cy="51.56" r="5.53"/><circle class="cls-137" cx="17.67" cy="51.69" r="5.53"/><circle class="cls-137" cx="17.56" cy="51.82" r="5.53"/><circle class="cls-138" cx="17.45" cy="51.95" r="5.53"/><circle class="cls-139" cx="17.34" cy="52.08" r="5.53"/><circle class="cls-140" cx="17.24" cy="52.21" r="5.53"/><circle class="cls-141" cx="17.13" cy="52.34" r="5.52"/><circle class="cls-142" cx="17.03" cy="52.48" r="5.52"/><circle class="cls-143" cx="16.93" cy="52.61" r="5.52"/><circle class="cls-144" cx="16.84" cy="52.74" r="5.52"/><circle class="cls-144" cx="16.75" cy="52.87" r="5.52"/><circle class="cls-145" cx="16.65" cy="53" r="5.52"/><circle class="cls-146" cx="16.57" cy="53.13" r="5.52"/><circle class="cls-147" cx="16.48" cy="53.26" r="5.51"/><circle class="cls-148" cx="16.39" cy="53.39" r="5.51"/><circle class="cls-149" cx="16.31" cy="53.52" r="5.51"/><circle class="cls-150" cx="16.23" cy="53.65" r="5.51"/><circle class="cls-151" cx="16.16" cy="53.78" r="5.51"/><circle class="cls-152" cx="16.08" cy="53.91" r="5.51"/><circle class="cls-153" cx="16.01" cy="54.04" r="5.5"/><circle class="cls-154" cx="15.94" cy="54.18" r="5.5"/><circle class="cls-155" cx="15.87" cy="54.31" r="5.5"/><circle class="cls-155" cx="15.8" cy="54.44" r="5.5"/><circle class="cls-156" cx="15.74" cy="54.57" r="5.5"/><circle class="cls-157" cx="15.68" cy="54.7" r="5.5"/><circle class="cls-158" cx="15.62" cy="54.83" r="5.5"/><circle class="cls-158" cx="15.56" cy="54.95" r="5.49"/><circle class="cls-159" cx="15.51" cy="55.08" r="5.49"/><circle class="cls-160" cx="15.45" cy="55.21" r="5.49"/><circle class="cls-161" cx="15.4" cy="55.34" r="5.49"/><circle class="cls-161" cx="15.36" cy="55.47" r="5.49"/><circle class="cls-162" cx="15.31" cy="55.6" r="5.49"/><circle class="cls-163" cx="15.27" cy="55.73" r="5.49"/><circle class="cls-164" cx="15.23" cy="55.86" r="5.48"/><circle class="cls-164" cx="15.19" cy="55.99" r="5.48"/><circle class="cls-165" cx="15.15" cy="56.11" r="5.48"/><circle class="cls-166" cx="15.12" cy="56.24" r="5.48"/><circle class="cls-167" cx="15.08" cy="56.37" r="5.48"/><circle class="cls-167" cx="15.05" cy="56.49" r="5.48"/><circle class="cls-168" cx="15.02" cy="56.62" r="5.47"/><circle class="cls-169" cx="15" cy="56.75" r="5.47"/><circle class="cls-170" cx="14.97" cy="56.87" r="5.47"/><circle class="cls-171" cx="14.95" cy="57" r="5.47"/><circle class="cls-172" cx="14.93" cy="57.12" r="5.47"/><circle class="cls-173" cx="14.91" cy="57.25" r="5.47"/><circle class="cls-174" cx="14.9" cy="57.37" r="5.47"/><circle class="cls-175" cx="14.89" cy="57.5" r="5.46"/><circle class="cls-176" cx="14.88" cy="57.62" r="5.46"/><circle class="cls-177" cx="14.87" cy="57.75" r="5.46"/><circle class="cls-178" cx="14.86" cy="57.87" r="5.46"/><circle class="cls-179" cx="14.85" cy="57.99" r="5.46"/><circle class="cls-180" cx="14.85" cy="58.11" r="5.46"/><circle class="cls-181" cx="14.85" cy="58.24" r="5.45"/><circle class="cls-182" cx="14.85" cy="58.36" r="5.45"/><circle class="cls-182" cx="14.86" cy="58.48" r="5.45"/><circle class="cls-183" cx="14.86" cy="58.6" r="5.45"/><circle class="cls-184" cx="14.87" cy="58.72" r="5.45"/><circle class="cls-185" cx="14.88" cy="58.84" r="5.45"/><circle class="cls-185" cx="14.89" cy="58.96" r="5.45"/><circle class="cls-186" cx="14.9" cy="59.08" r="5.44"/><circle class="cls-187" cx="14.92" cy="59.19" r="5.44"/><circle class="cls-188" cx="14.94" cy="59.31" r="5.44"/><circle class="cls-188" cx="14.96" cy="59.43" r="5.44"/><circle class="cls-189" cx="14.98" cy="59.55" r="5.44"/><circle class="cls-190" cx="15" cy="59.66" r="5.44"/><circle class="cls-191" cx="15.03" cy="59.78" r="5.44"/><circle class="cls-191" cx="15.05" cy="59.89" r="5.43"/><circle class="cls-192" cx="15.08" cy="60.01" r="5.43"/><circle class="cls-193" cx="15.12" cy="60.12" r="5.43"/><circle class="cls-194" cx="15.15" cy="60.23" r="5.43"/><circle class="cls-194" cx="15.18" cy="60.34" r="5.43"/><circle class="cls-195" cx="15.22" cy="60.46" r="5.43"/><circle class="cls-196" cx="15.26" cy="60.57" r="5.42"/><circle class="cls-197" cx="15.3" cy="60.68" r="5.42"/><circle class="cls-198" cx="15.35" cy="60.79" r="5.42"/><circle class="cls-199" cx="15.39" cy="60.9" r="5.42"/><circle class="cls-200" cx="15.44" cy="61" r="5.42"/><circle class="cls-201" cx="15.49" cy="61.11" r="5.42"/><circle class="cls-202" cx="15.54" cy="61.22" r="5.42"/><circle class="cls-203" cx="15.59" cy="61.33" r="5.41"/><circle class="cls-204" cx="15.65" cy="61.43" r="5.41"/><circle class="cls-205" cx="15.7" cy="61.54" r="5.41"/><circle class="cls-206" cx="15.76" cy="61.64" r="5.41"/><circle class="cls-207" cx="15.82" cy="61.74" r="5.41"/><circle class="cls-208" cx="15.88" cy="61.85" r="5.41"/><circle class="cls-209" cx="15.95" cy="61.95" r="5.4"/><circle class="cls-209" cx="16.01" cy="62.05" r="5.4"/><circle class="cls-210" cx="16.08" cy="62.15" r="5.4"/><circle class="cls-211" cx="16.15" cy="62.25" r="5.4"/><circle class="cls-212" cx="16.22" cy="62.35" r="5.4"/><circle class="cls-212" cx="16.3" cy="62.45" r="5.4"/><circle class="cls-213" cx="16.37" cy="62.54" r="5.4"/><circle class="cls-214" cx="16.45" cy="62.64" r="5.39"/><circle class="cls-215" cx="16.53" cy="62.73" r="5.39"/><circle class="cls-215" cx="16.61" cy="62.83" r="5.39"/><circle class="cls-216" cx="16.69" cy="62.92" r="5.39"/><circle class="cls-217" cx="16.77" cy="63.01" r="5.39"/><circle class="cls-218" cx="16.86" cy="63.11" r="5.39"/><circle class="cls-219" cx="16.95" cy="63.2" r="5.39"/><circle class="cls-220" cx="17.04" cy="63.29" r="5.38"/><circle class="cls-221" cx="17.13" cy="63.38" r="5.38"/><circle class="cls-222" cx="17.22" cy="63.46" r="5.38"/><circle class="cls-222" cx="17.31" cy="63.55" r="5.38"/><circle class="cls-223" cx="17.41" cy="63.64" r="5.38"/><circle class="cls-224" cx="17.51" cy="63.72" r="5.38"/><circle class="cls-225" cx="17.61" cy="63.81" r="5.37"/><circle class="cls-226" cx="17.71" cy="63.89" r="5.37"/><circle class="cls-227" cx="17.81" cy="63.97" r="5.37"/><circle class="cls-228" cx="17.92" cy="64.05" r="5.37"/><circle class="cls-229" cx="18.03" cy="64.13" r="5.37"/><circle class="cls-230" cx="18.13" cy="64.21" r="5.37"/><circle class="cls-231" cx="18.24" cy="64.29" r="5.37"/><circle class="cls-232" cx="18.36" cy="64.37" r="5.36"/><circle class="cls-233" cx="18.47" cy="64.44" r="5.36"/><circle class="cls-234" cx="18.58" cy="64.52" r="5.36"/><circle class="cls-235" cx="18.7" cy="64.59" r="5.36"/><circle class="cls-236" cx="18.82" cy="64.66" r="5.36"/><circle class="cls-237" cx="18.94" cy="64.73" r="5.36"/><circle class="cls-237" cx="19.06" cy="64.8" r="5.35"/><circle class="cls-238" cx="19.18" cy="64.87" r="5.35"/><circle class="cls-239" cx="19.31" cy="64.94" r="5.35"/><circle class="cls-240" cx="19.44" cy="65.01" r="5.35"/><circle class="cls-241" cx="19.56" cy="65.07" r="5.35"/><circle class="cls-242" cx="19.69" cy="65.14" r="5.35"/><circle class="cls-243" cx="19.82" cy="65.2" r="5.35"/><circle class="cls-244" cx="19.96" cy="65.26" r="5.34"/><circle class="cls-244" cx="20.09" cy="65.33" r="5.34"/><circle class="cls-245" cx="20.23" cy="65.38" r="5.34"/><circle class="cls-246" cx="20.37" cy="65.44" r="5.34"/><circle class="cls-247" cx="20.51" cy="65.5" r="5.34"/><circle class="cls-248" cx="20.65" cy="65.56" r="5.34"/><circle class="cls-249" cx="20.79" cy="65.61" r="5.34"/><circle class="cls-250" cx="20.93" cy="65.66" r="5.33"/><circle class="cls-251" cx="21.08" cy="65.72" r="5.33"/><circle class="cls-251" cx="21.22" cy="65.77" r="5.33"/><circle class="cls-252" cx="21.37" cy="65.82" r="5.33"/><circle class="cls-253" cx="21.52" cy="65.87" r="5.33"/><circle class="cls-254" cx="21.67" cy="65.91" r="5.33"/><circle class="cls-255" cx="21.83" cy="65.96" r="5.32"/><circle class="cls-256" cx="21.98" cy="66" r="5.32"/><circle class="cls-257" cx="22.14" cy="66.05" r="5.32"/><circle class="cls-258" cx="22.3" cy="66.09" r="5.32"/><circle class="cls-259" cx="22.45" cy="66.13" r="5.32"/><circle class="cls-260" cx="22.62" cy="66.17" r="5.32"/><circle class="cls-261" cx="22.78" cy="66.2" r="5.32"/><circle class="cls-262" cx="22.94" cy="66.24" r="5.31"/><circle class="cls-263" cx="23.11" cy="66.27" r="5.31"/><circle class="cls-264" cx="23.27" cy="66.31" r="5.31"/><circle class="cls-265" cx="23.44" cy="66.34" r="5.31"/><circle class="cls-266" cx="23.61" cy="66.37" r="5.31"/><circle class="cls-266" cx="23.78" cy="66.4" r="5.31"/><circle class="cls-267" cx="23.95" cy="66.43" r="5.3"/><circle class="cls-268" cx="24.13" cy="66.45" r="5.3"/><circle class="cls-269" cx="24.3" cy="66.48" r="5.3"/><circle class="cls-270" cx="24.48" cy="66.5" r="5.3"/><circle class="cls-271" cx="24.65" cy="66.52" r="5.3"/><circle class="cls-272" cx="24.83" cy="66.54" r="5.3"/><circle class="cls-273" cx="25.01" cy="66.56" r="5.3"/><circle class="cls-273" cx="25.2" cy="66.58" r="5.29"/><circle class="cls-274" cx="25.38" cy="66.59" r="5.29"/><circle class="cls-275" cx="25.56" cy="66.61" r="5.29"/><circle class="cls-276" cx="25.75" cy="66.62" r="5.29"/><circle class="cls-277" cx="25.94" cy="66.63" r="5.29"/><circle class="cls-278" cx="26.12" cy="66.64" r="5.29"/><circle class="cls-279" cx="26.31" cy="66.64" r="5.29"/><circle class="cls-280" cx="26.51" cy="66.65" r="5.28"/><circle class="cls-280" cx="26.7" cy="66.65" r="5.28"/><circle class="cls-281" cx="26.89" cy="66.66" r="5.28"/><circle class="cls-282" cx="27.09" cy="66.66" r="5.28"/><circle class="cls-282" cx="27.41" cy="66.66" r="5.28"/><circle class="cls-281" cx="27.72" cy="66.65" r="5.28"/><circle class="cls-283" cx="28.03" cy="66.64" r="5.28"/><circle class="cls-283" cx="28.34" cy="66.63" r="5.29"/><circle class="cls-283" cx="28.65" cy="66.62" r="5.29"/><circle class="cls-284" cx="28.96" cy="66.6" r="5.29"/><circle class="cls-284" cx="29.26" cy="66.58" r="5.29"/><circle class="cls-284" cx="29.56" cy="66.56" r="5.29"/><circle class="cls-285" cx="29.86" cy="66.53" r="5.29"/><circle class="cls-286" cx="30.15" cy="66.5" r="5.3"/><circle class="cls-286" cx="30.44" cy="66.47" r="5.3"/><circle class="cls-286" cx="30.73" cy="66.44" r="5.3"/><circle class="cls-286" cx="31.02" cy="66.4" r="5.3"/><circle class="cls-287" cx="31.3" cy="66.36" r="5.3"/><circle class="cls-288" cx="31.59" cy="66.32" r="5.3"/><circle class="cls-288" cx="31.87" cy="66.27" r="5.31"/><circle class="cls-289" cx="32.14" cy="66.22" r="5.31"/><circle class="cls-289" cx="32.42" cy="66.17" r="5.31"/><circle class="cls-289" cx="32.69" cy="66.11" r="5.31"/><circle class="cls-289" cx="32.96" cy="66.06" r="5.31"/><circle class="cls-290" cx="33.22" cy="66" r="5.31"/><circle class="cls-290" cx="33.49" cy="65.93" r="5.32"/><circle class="cls-290" cx="33.75" cy="65.87" r="5.32"/><circle class="cls-290" cx="34.01" cy="65.8" r="5.32"/><circle class="cls-291" cx="34.26" cy="65.73" r="5.32"/><circle class="cls-292" cx="34.52" cy="65.66" r="5.32"/><circle class="cls-292" cx="34.77" cy="65.58" r="5.32"/><circle class="cls-292" cx="35.02" cy="65.5" r="5.33"/><circle class="cls-293" cx="35.26" cy="65.42" r="5.33"/><circle class="cls-293" cx="35.51" cy="65.34" r="5.33"/><circle class="cls-293" cx="35.75" cy="65.25" r="5.33"/><circle class="cls-294" cx="35.98" cy="65.17" r="5.33"/><circle class="cls-294" cx="36.22" cy="65.08" r="5.33"/><circle class="cls-294" cx="36.45" cy="64.98" r="5.34"/><circle class="cls-294" cx="36.68" cy="64.89" r="5.34"/><circle class="cls-295" cx="36.91" cy="64.79" r="5.34"/><circle class="cls-295" cx="37.13" cy="64.69" r="5.34"/><circle class="cls-296" cx="37.36" cy="64.59" r="5.34"/><circle class="cls-296" cx="37.58" cy="64.48" r="5.34"/><circle class="cls-297" cx="37.79" cy="64.37" r="5.35"/><circle class="cls-297" cx="38.01" cy="64.26" r="5.35"/><circle class="cls-297" cx="38.22" cy="64.15" r="5.35"/><circle class="cls-297" cx="38.43" cy="64.04" r="5.35"/><circle class="cls-298" cx="38.63" cy="63.92" r="5.35"/><circle class="cls-298" cx="38.84" cy="63.8" r="5.35"/><circle class="cls-298" cx="39.04" cy="63.68" r="5.36"/><circle class="cls-299" cx="39.24" cy="63.56" r="5.36"/><circle class="cls-299" cx="39.43" cy="63.44" r="5.36"/><circle class="cls-300" cx="39.63" cy="63.31" r="5.36"/><circle class="cls-300" cx="39.82" cy="63.18" r="5.36"/><circle class="cls-301" cx="40.01" cy="63.05" r="5.36"/><circle class="cls-301" cx="40.19" cy="62.92" r="5.37"/><circle class="cls-301" cx="40.38" cy="62.78" r="5.37"/><circle class="cls-301" cx="40.56" cy="62.64" r="5.37"/><circle class="cls-302" cx="40.73" cy="62.5" r="5.37"/><circle class="cls-302" cx="40.91" cy="62.36" r="5.37"/><circle class="cls-302" cx="41.08" cy="62.22" r="5.37"/><circle class="cls-303" cx="41.25" cy="62.08" r="5.38"/><circle class="cls-303" cx="41.42" cy="61.93" r="5.38"/><circle class="cls-303" cx="41.58" cy="61.78" r="5.38"/><circle class="cls-304" cx="41.74" cy="61.63" r="5.38"/><circle class="cls-305" cx="41.9" cy="61.48" r="5.38"/><circle class="cls-305" cx="42.06" cy="61.32" r="5.38"/><circle class="cls-305" cx="42.21" cy="61.17" r="5.39"/><circle class="cls-305" cx="42.36" cy="61.01" r="5.39"/><circle class="cls-306" cx="42.51" cy="60.85" r="5.39"/><circle class="cls-307" cx="42.66" cy="60.69" r="5.39"/><circle class="cls-307" cx="42.8" cy="60.53" r="5.39"/><circle class="cls-307" cx="42.94" cy="60.36" r="5.39"/><circle class="cls-308" cx="43.08" cy="60.2" r="5.4"/><circle class="cls-308" cx="43.22" cy="60.03" r="5.4"/><circle class="cls-309" cx="43.35" cy="59.86" r="5.4"/><circle class="cls-310" cx="43.48" cy="59.69" r="5.4"/><circle class="cls-310" cx="43.61" cy="59.52" r="5.4"/><circle class="cls-310" cx="43.73" cy="59.35" r="5.4"/><circle class="cls-310" cx="43.85" cy="59.17" r="5.41"/><circle class="cls-311" cx="43.97" cy="58.99" r="5.41"/><circle class="cls-312" cx="44.09" cy="58.81" r="5.41"/><circle class="cls-312" cx="44.2" cy="58.64" r="5.41"/><circle class="cls-312" cx="44.31" cy="58.45" r="5.41"/><circle class="cls-313" cx="44.42" cy="58.27" r="5.41"/><circle class="cls-313" cx="44.53" cy="58.09" r="5.42"/><circle class="cls-313" cx="44.63" cy="57.9" r="5.42"/><circle class="cls-314" cx="44.73" cy="57.72" r="5.42"/><circle class="cls-315" cx="44.83" cy="57.53" r="5.42"/><circle class="cls-315" cx="44.93" cy="57.34" r="5.42"/><circle class="cls-315" cx="45.02" cy="57.15" r="5.42"/><circle class="cls-316" cx="45.11" cy="56.96" r="5.43"/><circle class="cls-316" cx="45.2" cy="56.76" r="5.43"/><circle class="cls-317" cx="45.28" cy="56.57" r="5.43"/><circle class="cls-317" cx="45.36" cy="56.37" r="5.43"/><circle class="cls-318" cx="45.44" cy="56.18" r="5.43"/><circle class="cls-318" cx="45.52" cy="55.98" r="5.43"/><circle class="cls-318" cx="45.59" cy="55.78" r="5.44"/><circle class="cls-318" cx="45.66" cy="55.58" r="5.44"/><circle class="cls-319" cx="45.73" cy="55.38" r="5.44"/><circle class="cls-319" cx="45.8" cy="55.18" r="5.44"/><circle class="cls-319" cx="45.86" cy="54.98" r="5.44"/><circle class="cls-319" cx="45.92" cy="54.77" r="5.44"/><circle class="cls-320" cx="45.98" cy="54.57" r="5.45"/><circle class="cls-321" cx="46.03" cy="54.36" r="5.45"/><circle class="cls-321" cx="46.09" cy="54.16" r="5.45"/><circle class="cls-322" cx="46.14" cy="53.95" r="5.45"/><circle class="cls-322" cx="46.18" cy="53.74" r="5.45"/><circle class="cls-322" cx="46.23" cy="53.53" r="5.45"/><circle class="cls-322" cx="46.27" cy="53.32" r="5.46"/><circle class="cls-323" cx="46.31" cy="53.11" r="5.46"/><circle class="cls-323" cx="46.34" cy="52.9" r="5.46"/><circle class="cls-323" cx="46.38" cy="52.68" r="5.46"/><circle class="cls-323" cx="46.41" cy="52.47" r="5.46"/><circle class="cls-324" cx="46.43" cy="52.26" r="5.46"/><circle class="cls-324" cx="46.46" cy="52.04" r="5.47"/><circle class="cls-325" cx="46.48" cy="51.83" r="5.47"/><circle class="cls-325" cx="46.5" cy="51.61" r="5.47"/><circle class="cls-326" cx="46.52" cy="51.39" r="5.47"/><circle class="cls-326" cx="46.53" cy="51.17" r="5.47"/><circle class="cls-326" cx="46.55" cy="50.96" r="5.47"/><circle class="cls-327" cx="46.55" cy="50.74" r="5.48"/><circle class="cls-328" cx="46.56" cy="50.52" r="5.48"/><circle class="cls-328" cx="46.56" cy="50.3" r="5.48"/><circle class="cls-328" cx="46.57" cy="50.08" r="5.48"/><circle class="cls-329" cx="46.56" cy="49.86" r="5.48"/><circle class="cls-329" cx="46.56" cy="49.63" r="5.48"/><circle class="cls-330" cx="46.55" cy="49.41" r="5.49"/><circle class="cls-330" cx="46.54" cy="49.19" r="5.49"/><circle class="cls-331" cx="46.53" cy="48.97" r="5.49"/><circle class="cls-331" cx="46.51" cy="48.74" r="5.49"/><circle class="cls-331" cx="46.49" cy="48.52" r="5.49"/><circle class="cls-331" cx="46.47" cy="48.3" r="5.49"/><circle class="cls-332" cx="46.45" cy="48.07" r="5.5"/><circle class="cls-332" cx="46.42" cy="47.85" r="5.5"/><circle class="cls-332" cx="46.39" cy="47.62" r="5.5"/><circle class="cls-333" cx="46.36" cy="47.4" r="5.5"/><circle class="cls-333" cx="46.33" cy="47.17" r="5.5"/><circle class="cls-333" cx="46.29" cy="46.95" r="5.5"/><circle class="cls-334" cx="46.25" cy="46.72" r="5.51"/><circle class="cls-335" cx="46.21" cy="46.5" r="5.51"/><circle class="cls-335" cx="46.16" cy="46.27" r="5.51"/><circle class="cls-335" cx="46.11" cy="46.04" r="5.51"/><circle class="cls-335" cx="46.06" cy="45.82" r="5.51"/><circle class="cls-336" cx="46.01" cy="45.59" r="5.51"/><circle class="cls-337" cx="45.95" cy="45.36" r="5.52"/><circle class="cls-337" cx="45.89" cy="45.14" r="5.52"/><circle class="cls-338" cx="45.83" cy="44.91" r="5.52"/><circle class="cls-338" cx="45.76" cy="44.69" r="5.52"/><circle class="cls-338" cx="45.7" cy="44.46" r="5.52"/><circle class="cls-339" cx="45.63" cy="44.23" r="5.52"/><circle class="cls-340" cx="45.55" cy="44.01" r="5.53"/><circle class="cls-340" cx="45.48" cy="43.78" r="5.53"/><circle class="cls-340" cx="45.4" cy="43.55" r="5.53"/><circle class="cls-340" cx="45.32" cy="43.33" r="5.53"/><circle class="cls-341" cx="45.23" cy="43.1" r="5.53"/><circle class="cls-342" cx="45.15" cy="42.88" r="5.53"/><circle class="cls-342" cx="45.06" cy="42.65" r="5.54"/><circle class="cls-342" cx="44.96" cy="42.42" r="5.54"/><circle class="cls-343" cx="44.87" cy="42.2" r="5.54"/><circle class="cls-343" cx="44.77" cy="41.97" r="5.54"/><circle class="cls-343" cx="44.67" cy="41.75" r="5.54"/><circle class="cls-344" cx="44.57" cy="41.53" r="5.54"/><circle class="cls-344" cx="44.46" cy="41.3" r="5.55"/><circle class="cls-344" cx="44.35" cy="41.08" r="5.55"/><circle class="cls-344" cx="44.24" cy="40.86" r="5.55"/><circle class="cls-345" cx="44.12" cy="40.63" r="5.55"/><circle class="cls-345" cx="44.01" cy="40.41" r="5.55"/><circle class="cls-346" cx="43.89" cy="40.19" r="5.55"/><circle class="cls-346" cx="43.76" cy="39.97" r="5.56"/><circle class="cls-347" cx="43.64" cy="39.75" r="5.56"/><circle class="cls-347" cx="43.51" cy="39.53" r="5.56"/><circle class="cls-347" cx="43.38" cy="39.31" r="5.56"/><circle class="cls-348" cx="43.24" cy="39.09" r="5.56"/><circle class="cls-349" cx="43.11" cy="38.87" r="5.56"/><circle class="cls-349" cx="42.97" cy="38.65" r="5.57"/><circle class="cls-349" cx="42.82" cy="38.43" r="5.57"/><circle class="cls-350" cx="42.68" cy="38.21" r="5.57"/><circle class="cls-350" cx="42.53" cy="38" r="5.57"/><circle class="cls-351" cx="42.38" cy="37.78" r="5.57"/><circle class="cls-351" cx="42.22" cy="37.57" r="5.57"/><circle class="cls-352" cx="42.07" cy="37.35" r="5.58"/><circle class="cls-352" cx="41.91" cy="37.14" r="5.58"/><circle class="cls-352" cx="41.75" cy="36.93" r="5.58"/><circle class="cls-352" cx="41.58" cy="36.71" r="5.58"/><circle class="cls-353" cx="41.41" cy="36.5" r="5.58"/><circle class="cls-353" cx="41.24" cy="36.29" r="5.58"/><circle class="cls-353" cx="41.07" cy="36.08" r="5.59"/><circle class="cls-353" cx="40.89" cy="35.88" r="5.59"/><circle class="cls-354" cx="40.71" cy="35.67" r="5.59"/><circle class="cls-354" cx="40.53" cy="35.46" r="5.59"/><circle class="cls-355" cx="40.35" cy="35.25" r="5.59"/><circle class="cls-356" cx="40.16" cy="35.05" r="5.59"/><circle class="cls-356" cx="39.97" cy="34.85" r="5.6"/><circle class="cls-356" cx="39.78" cy="34.64" r="5.6"/><circle class="cls-356" cx="39.58" cy="34.44" r="5.6"/><circle class="cls-357" cx="39.38" cy="34.24" r="5.6"/><circle class="cls-357" cx="39.18" cy="34.04" r="5.6"/><circle class="cls-357" cx="38.98" cy="33.84" r="5.6"/><circle class="cls-357" cx="38.77" cy="33.64" r="5.61"/><circle class="cls-358" cx="38.56" cy="33.45" r="5.61"/><circle class="cls-358" cx="38.35" cy="33.25" r="5.61"/><circle class="cls-359" cx="38.13" cy="33.06" r="5.61"/><circle class="cls-359" cx="37.91" cy="32.87" r="5.61"/><circle class="cls-360" cx="37.69" cy="32.67" r="5.61"/><circle class="cls-360" cx="37.47" cy="32.48" r="5.62"/><circle class="cls-360" cx="37.24" cy="32.29" r="5.62"/><circle class="cls-361" cx="37.01" cy="32.11" r="5.62"/><circle class="cls-362" cx="36.78" cy="31.92" r="5.62"/><circle class="cls-362" cx="36.54" cy="31.74" r="5.62"/><circle class="cls-362" cx="36.3" cy="31.55" r="5.62"/><circle class="cls-363" cx="36.06" cy="31.37" r="5.62"/><circle class="cls-363" cx="35.82" cy="31.19" r="5.63"/><circle class="cls-363" cx="35.57" cy="31.01" r="5.63"/><circle class="cls-364" cx="35.32" cy="30.83" r="5.63"/><circle class="cls-365" cx="35.07" cy="30.65" r="5.63"/><circle class="cls-365" cx="34.82" cy="30.48" r="5.63"/><circle class="cls-365" cx="34.56" cy="30.3" r="5.63"/><circle class="cls-365" cx="34.3" cy="30.13" r="5.64"/><circle class="cls-366" cx="34.03" cy="29.96" r="5.64"/><circle class="cls-366" cx="33.77" cy="29.79" r="5.64"/><circle class="cls-366" cx="33.5" cy="29.62" r="5.64"/><circle class="cls-367" cx="33.22" cy="29.46" r="5.64"/><circle class="cls-367" cx="32.95" cy="29.29" r="5.64"/><circle class="cls-367" cx="32.67" cy="29.13" r="5.65"/><circle class="cls-368" cx="32.39" cy="28.97" r="5.65"/><circle class="cls-369" cx="32.11" cy="28.81" r="5.65"/><circle class="cls-369" cx="31.82" cy="28.65" r="5.65"/><circle class="cls-369" cx="31.53" cy="28.5" r="5.65"/><circle class="cls-369" cx="31.24" cy="28.34" r="5.65"/><circle class="cls-370" cx="30.94" cy="28.19" r="5.66"/><circle class="cls-371" cx="30.64" cy="28.04" r="5.66"/><circle class="cls-371" cx="30.34" cy="27.89" r="5.66"/><circle class="cls-371" cx="30.04" cy="27.75" r="5.66"/><circle class="cls-372" cx="29.73" cy="27.6" r="5.66"/><circle class="cls-372" cx="29.42" cy="27.46" r="5.66"/><circle class="cls-372" cx="29.11" cy="27.32" r="5.67"/><circle class="cls-373" cx="28.79" cy="27.18" r="5.67"/><circle class="cls-373" cx="28.48" cy="27.04" r="5.67"/><circle class="cls-373" cx="28.15" cy="26.91" r="5.67"/><circle class="cls-373" cx="27.83" cy="26.77" r="5.67"/><circle class="cls-374" cx="27.5" cy="26.64" r="5.67"/><circle class="cls-374" cx="27.17" cy="26.51" r="5.68"/><circle class="cls-375" cx="26.84" cy="26.39" r="5.68"/><circle class="cls-375" cx="26.51" cy="26.26" r="5.68"/><circle class="cls-376" cx="26.17" cy="26.14" r="5.68"/><circle class="cls-376" cx="25.83" cy="26.02" r="5.68"/><circle class="cls-376" cx="25.48" cy="25.9" r="5.68"/><circle class="cls-377" cx="25.13" cy="25.78" r="5.69"/><circle class="cls-377" cx="24.78" cy="25.67" r="5.69"/><circle class="cls-377" cx="24.43" cy="25.56" r="5.69"/><circle class="cls-377" cx="24.08" cy="25.45" r="5.69"/><circle class="cls-378" cx="23.72" cy="25.34" r="5.69"/><circle class="cls-378" cx="23.36" cy="25.24" r="5.69"/><circle class="cls-379" cx="22.99" cy="25.13" r="5.7"/><circle class="cls-379" cx="22.62" cy="25.03" r="5.7"/><circle class="cls-380" cx="22.25" cy="24.94" r="5.7"/><circle class="cls-380" cx="21.88" cy="24.84" r="5.7"/><circle class="cls-380" cx="21.5" cy="24.75" r="5.7"/><circle class="cls-380" cx="21.13" cy="24.66" r="5.7"/><circle class="cls-381" cx="20.74" cy="24.57" r="5.71"/><circle class="cls-381" cx="20.36" cy="24.48" r="5.71"/><circle class="cls-381" cx="19.97" cy="24.4" r="5.71"/><circle class="cls-382" cx="19.58" cy="24.32" r="5.71"/><circle class="cls-382" cx="19.19" cy="24.24" r="5.71"/><circle class="cls-382" cx="18.79" cy="24.17" r="5.71"/><circle class="cls-383" cx="18.39" cy="24.09" r="5.72"/><circle class="cls-384" cx="17.99" cy="24.02" r="5.72"/><circle class="cls-384" cx="17.58" cy="23.95" r="5.72"/><circle class="cls-384" cx="17.18" cy="23.89" r="5.72"/><circle class="cls-384" cx="16.77" cy="23.83" r="5.72"/><circle class="cls-385" cx="16.35" cy="23.77" r="5.72"/><circle class="cls-385" cx="15.94" cy="23.71" r="5.73"/><circle class="cls-385" cx="15.52" cy="23.65" r="5.73"/><circle class="cls-385" cx="15.09" cy="23.6" r="5.73"/><circle class="cls-386" cx="14.67" cy="23.55" r="5.73"/><circle class="cls-386" cx="14.24" cy="23.51" r="5.73"/><circle class="cls-387" cx="13.81" cy="23.46" r="5.73"/><circle class="cls-388" cx="13.37" cy="23.42" r="5.74"/><circle class="cls-388" cx="12.94" cy="23.39" r="5.74"/><circle class="cls-388" cx="12.5" cy="23.35" r="5.74"/><circle class="cls-388" cx="12.05" cy="23.32" r="5.74"/><circle class="cls-389" cx="11.61" cy="23.29" r="5.74"/><circle class="cls-390" cx="11.16" cy="23.26" r="5.74"/><circle class="cls-390" cx="10.71" cy="23.24" r="5.75"/><circle class="cls-390" cx="10.25" cy="23.22" r="5.75"/><circle class="cls-391" cx="9.79" cy="23.2" r="5.75"/><circle class="cls-391" cx="9.33" cy="23.19" r="5.75"/><circle class="cls-391" cx="8.87" cy="23.18" r="5.75"/><circle class="cls-392" cx="8.4" cy="23.17" r="5.75"/><circle class="cls-393" cx="7.93" cy="23.17" r="5.76"/><circle class="cls-393" cx="7.46" cy="23.17" r="5.76"/><circle class="cls-393" cx="17.77" cy="7.7" r="5.76"/><path class="cls-1" d="M75.5,24.4a5.87,5.87,0,0,1,11.73,0,5.87,5.87,0,0,1-11.73,0Z"/></svg>